G04 #@! TF.GenerationSoftware,KiCad,Pcbnew,5.0.0-fee4fd1~66~ubuntu18.04.1*
G04 #@! TF.CreationDate,2018-08-10T10:17:42+02:00*
G04 #@! TF.ProjectId,Can_pHat_5.0,43616E5F704861745F352E302E6B6963,rev?*
G04 #@! TF.SameCoordinates,Original*
G04 #@! TF.FileFunction,Legend,Top*
G04 #@! TF.FilePolarity,Positive*
%FSLAX46Y46*%
G04 Gerber Fmt 4.6, Leading zero omitted, Abs format (unit mm)*
G04 Created by KiCad (PCBNEW 5.0.0-fee4fd1~66~ubuntu18.04.1) date Fri Aug 10 10:17:42 2018*
%MOMM*%
%LPD*%
G01*
G04 APERTURE LIST*
%ADD10C,0.125000*%
%ADD11C,0.200000*%
%ADD12C,0.250000*%
%ADD13C,0.150000*%
%ADD14C,0.120000*%
%ADD15C,0.010000*%
G04 APERTURE END LIST*
D10*
X59436190Y-29662380D02*
X59388571Y-29614761D01*
X59364761Y-29519523D01*
X59364761Y-28662380D01*
X59817142Y-29614761D02*
X59769523Y-29662380D01*
X59674285Y-29662380D01*
X59626666Y-29614761D01*
X59602857Y-29519523D01*
X59602857Y-29138571D01*
X59626666Y-29043333D01*
X59674285Y-28995714D01*
X59769523Y-28995714D01*
X59817142Y-29043333D01*
X59840952Y-29138571D01*
X59840952Y-29233809D01*
X59602857Y-29329047D01*
X60269523Y-29662380D02*
X60269523Y-29138571D01*
X60245714Y-29043333D01*
X60198095Y-28995714D01*
X60102857Y-28995714D01*
X60055238Y-29043333D01*
X60269523Y-29614761D02*
X60221904Y-29662380D01*
X60102857Y-29662380D01*
X60055238Y-29614761D01*
X60031428Y-29519523D01*
X60031428Y-29424285D01*
X60055238Y-29329047D01*
X60102857Y-29281428D01*
X60221904Y-29281428D01*
X60269523Y-29233809D01*
X60721904Y-29662380D02*
X60721904Y-28662380D01*
X60721904Y-29614761D02*
X60674285Y-29662380D01*
X60579047Y-29662380D01*
X60531428Y-29614761D01*
X60507619Y-29567142D01*
X60483809Y-29471904D01*
X60483809Y-29186190D01*
X60507619Y-29090952D01*
X60531428Y-29043333D01*
X60579047Y-28995714D01*
X60674285Y-28995714D01*
X60721904Y-29043333D01*
X61269523Y-28995714D02*
X61460000Y-28995714D01*
X61340952Y-29662380D02*
X61340952Y-28805238D01*
X61364761Y-28710000D01*
X61412380Y-28662380D01*
X61460000Y-28662380D01*
X61626666Y-29662380D02*
X61626666Y-28995714D01*
X61626666Y-29186190D02*
X61650476Y-29090952D01*
X61674285Y-29043333D01*
X61721904Y-28995714D01*
X61769523Y-28995714D01*
X62126666Y-29614761D02*
X62079047Y-29662380D01*
X61983809Y-29662380D01*
X61936190Y-29614761D01*
X61912380Y-29519523D01*
X61912380Y-29138571D01*
X61936190Y-29043333D01*
X61983809Y-28995714D01*
X62079047Y-28995714D01*
X62126666Y-29043333D01*
X62150476Y-29138571D01*
X62150476Y-29233809D01*
X61912380Y-29329047D01*
X62555238Y-29614761D02*
X62507619Y-29662380D01*
X62412380Y-29662380D01*
X62364761Y-29614761D01*
X62340952Y-29519523D01*
X62340952Y-29138571D01*
X62364761Y-29043333D01*
X62412380Y-28995714D01*
X62507619Y-28995714D01*
X62555238Y-29043333D01*
X62579047Y-29138571D01*
X62579047Y-29233809D01*
X62340952Y-29329047D01*
D11*
X61976000Y-27559000D02*
X60071000Y-25654000D01*
X62379903Y-26670000D02*
G75*
G03X62379903Y-26670000I-1419903J0D01*
G01*
D12*
X60198095Y-27122380D02*
X60198095Y-26122380D01*
X60579047Y-26122380D01*
X60674285Y-26170000D01*
X60721904Y-26217619D01*
X60769523Y-26312857D01*
X60769523Y-26455714D01*
X60721904Y-26550952D01*
X60674285Y-26598571D01*
X60579047Y-26646190D01*
X60198095Y-26646190D01*
X61531428Y-26598571D02*
X61674285Y-26646190D01*
X61721904Y-26693809D01*
X61769523Y-26789047D01*
X61769523Y-26931904D01*
X61721904Y-27027142D01*
X61674285Y-27074761D01*
X61579047Y-27122380D01*
X61198095Y-27122380D01*
X61198095Y-26122380D01*
X61531428Y-26122380D01*
X61626666Y-26170000D01*
X61674285Y-26217619D01*
X61721904Y-26312857D01*
X61721904Y-26408095D01*
X61674285Y-26503333D01*
X61626666Y-26550952D01*
X61531428Y-26598571D01*
X61198095Y-26598571D01*
D13*
X75382380Y-41243095D02*
X75382380Y-41814523D01*
X75382380Y-41528809D02*
X74382380Y-41528809D01*
X74525238Y-41624047D01*
X74620476Y-41719285D01*
X74668095Y-41814523D01*
X74477619Y-40862142D02*
X74430000Y-40814523D01*
X74382380Y-40719285D01*
X74382380Y-40481190D01*
X74430000Y-40385952D01*
X74477619Y-40338333D01*
X74572857Y-40290714D01*
X74668095Y-40290714D01*
X74810952Y-40338333D01*
X75382380Y-40909761D01*
X75382380Y-40290714D01*
X74382380Y-39671666D02*
X74382380Y-39576428D01*
X74430000Y-39481190D01*
X74477619Y-39433571D01*
X74572857Y-39385952D01*
X74763333Y-39338333D01*
X75001428Y-39338333D01*
X75191904Y-39385952D01*
X75287142Y-39433571D01*
X75334761Y-39481190D01*
X75382380Y-39576428D01*
X75382380Y-39671666D01*
X75334761Y-39766904D01*
X75287142Y-39814523D01*
X75191904Y-39862142D01*
X75001428Y-39909761D01*
X74763333Y-39909761D01*
X74572857Y-39862142D01*
X74477619Y-39814523D01*
X74430000Y-39766904D01*
X74382380Y-39671666D01*
X75382380Y-38957380D02*
X75382380Y-38719285D01*
X75191904Y-38719285D01*
X75144285Y-38814523D01*
X75049047Y-38909761D01*
X74906190Y-38957380D01*
X74668095Y-38957380D01*
X74525238Y-38909761D01*
X74430000Y-38814523D01*
X74382380Y-38671666D01*
X74382380Y-38481190D01*
X74430000Y-38338333D01*
X74525238Y-38243095D01*
X74668095Y-38195476D01*
X74906190Y-38195476D01*
X75049047Y-38243095D01*
X75144285Y-38338333D01*
X75191904Y-38433571D01*
X75382380Y-38433571D01*
X75382380Y-38195476D01*
D12*
X62817857Y-32170714D02*
X62817857Y-32980238D01*
X62770238Y-33075476D01*
X62722619Y-33123095D01*
X62627380Y-33170714D01*
X62484523Y-33170714D01*
X62389285Y-33123095D01*
X62817857Y-32789761D02*
X62722619Y-32837380D01*
X62532142Y-32837380D01*
X62436904Y-32789761D01*
X62389285Y-32742142D01*
X62341666Y-32646904D01*
X62341666Y-32361190D01*
X62389285Y-32265952D01*
X62436904Y-32218333D01*
X62532142Y-32170714D01*
X62722619Y-32170714D01*
X62817857Y-32218333D01*
X63294047Y-32837380D02*
X63294047Y-32170714D01*
X63294047Y-31837380D02*
X63246428Y-31885000D01*
X63294047Y-31932619D01*
X63341666Y-31885000D01*
X63294047Y-31837380D01*
X63294047Y-31932619D01*
X63627380Y-32170714D02*
X64008333Y-32170714D01*
X63770238Y-31837380D02*
X63770238Y-32694523D01*
X63817857Y-32789761D01*
X63913095Y-32837380D01*
X64008333Y-32837380D01*
X64341666Y-32742142D02*
X64389285Y-32789761D01*
X64341666Y-32837380D01*
X64294047Y-32789761D01*
X64341666Y-32742142D01*
X64341666Y-32837380D01*
X64817857Y-32837380D02*
X64817857Y-32170714D01*
X64817857Y-31837380D02*
X64770238Y-31885000D01*
X64817857Y-31932619D01*
X64865476Y-31885000D01*
X64817857Y-31837380D01*
X64817857Y-31932619D01*
X65436904Y-32837380D02*
X65341666Y-32789761D01*
X65294047Y-32742142D01*
X65246428Y-32646904D01*
X65246428Y-32361190D01*
X65294047Y-32265952D01*
X65341666Y-32218333D01*
X65436904Y-32170714D01*
X65579761Y-32170714D01*
X65675000Y-32218333D01*
X65722619Y-32265952D01*
X65770238Y-32361190D01*
X65770238Y-32646904D01*
X65722619Y-32742142D01*
X65675000Y-32789761D01*
X65579761Y-32837380D01*
X65436904Y-32837380D01*
X66913095Y-31789761D02*
X66055952Y-33075476D01*
X67103571Y-32170714D02*
X67484523Y-32170714D01*
X67246428Y-32837380D02*
X67246428Y-31980238D01*
X67294047Y-31885000D01*
X67389285Y-31837380D01*
X67484523Y-31837380D01*
X67817857Y-32837380D02*
X67817857Y-31837380D01*
X68389285Y-32837380D01*
X68389285Y-31837380D01*
X68817857Y-32789761D02*
X68960714Y-32837380D01*
X69198809Y-32837380D01*
X69294047Y-32789761D01*
X69341666Y-32742142D01*
X69389285Y-32646904D01*
X69389285Y-32551666D01*
X69341666Y-32456428D01*
X69294047Y-32408809D01*
X69198809Y-32361190D01*
X69008333Y-32313571D01*
X68913095Y-32265952D01*
X68865476Y-32218333D01*
X68817857Y-32123095D01*
X68817857Y-32027857D01*
X68865476Y-31932619D01*
X68913095Y-31885000D01*
X69008333Y-31837380D01*
X69246428Y-31837380D01*
X69389285Y-31885000D01*
X69817857Y-31837380D02*
X69817857Y-32646904D01*
X69865476Y-32742142D01*
X69913095Y-32789761D01*
X70008333Y-32837380D01*
X70198809Y-32837380D01*
X70294047Y-32789761D01*
X70341666Y-32742142D01*
X70389285Y-32646904D01*
X70389285Y-31837380D01*
X70722619Y-32170714D02*
X71103571Y-32170714D01*
X70865476Y-32837380D02*
X70865476Y-31980238D01*
X70913095Y-31885000D01*
X71008333Y-31837380D01*
X71103571Y-31837380D01*
D14*
G04 #@! TO.C,J2*
X38665000Y-46917000D02*
X38665000Y-36437000D01*
X38665000Y-36437000D02*
X69635000Y-36437000D01*
X69635000Y-36437000D02*
X69635000Y-46917000D01*
X59440000Y-35542662D02*
X59940000Y-35542662D01*
X59940000Y-35542662D02*
X59690000Y-35975675D01*
X59690000Y-35975675D02*
X59440000Y-35542662D01*
D13*
G04 #@! TO.C,U2*
X19065000Y-34990000D02*
X19065000Y-36815000D01*
X30715000Y-34990000D02*
X30715000Y-27240000D01*
X18815000Y-34990000D02*
X18815000Y-27240000D01*
X30715000Y-34990000D02*
X30370000Y-34990000D01*
X30715000Y-27240000D02*
X30370000Y-27240000D01*
X18815000Y-27240000D02*
X19160000Y-27240000D01*
X18815000Y-34990000D02*
X19065000Y-34990000D01*
D14*
G04 #@! TO.C,Y1*
X36815000Y-27890000D02*
G75*
G03X31765000Y-27890000I-2525000J0D01*
G01*
X36815000Y-34140000D02*
G75*
G02X31765000Y-34140000I-2525000J0D01*
G01*
X36815000Y-34140000D02*
X36815000Y-27890000D01*
X31765000Y-34140000D02*
X31765000Y-27890000D01*
G04 #@! TO.C,C1*
X37215000Y-42180000D02*
X37215000Y-40180000D01*
X35175000Y-40180000D02*
X35175000Y-42180000D01*
G04 #@! TO.C,C2*
X27055000Y-42815000D02*
X27055000Y-40815000D01*
X25015000Y-40815000D02*
X25015000Y-42815000D01*
G04 #@! TO.C,C3*
X39735000Y-27055000D02*
X41735000Y-27055000D01*
X41735000Y-25015000D02*
X39735000Y-25015000D01*
G04 #@! TO.C,C4*
X41735000Y-27555000D02*
X39735000Y-27555000D01*
X39735000Y-29595000D02*
X41735000Y-29595000D01*
G04 #@! TO.C,C5*
X45335000Y-27035000D02*
X45335000Y-29035000D01*
X47375000Y-29035000D02*
X47375000Y-27035000D01*
G04 #@! TO.C,J1*
X24040000Y-23100000D02*
X24040000Y-21770000D01*
X25370000Y-23100000D02*
X24040000Y-23100000D01*
X24040000Y-20500000D02*
X24040000Y-17900000D01*
X26640000Y-20500000D02*
X24040000Y-20500000D01*
X26640000Y-23100000D02*
X26640000Y-20500000D01*
X24040000Y-17900000D02*
X74960000Y-17900000D01*
X26640000Y-23100000D02*
X74960000Y-23100000D01*
X74960000Y-23100000D02*
X74960000Y-17900000D01*
G04 #@! TO.C,J3*
X81810000Y-35540000D02*
X81810000Y-25380000D01*
X74190000Y-35540000D02*
X81810000Y-35540000D01*
X74190000Y-25380000D02*
X74190000Y-35540000D01*
X81810000Y-25380000D02*
X74190000Y-25380000D01*
X80540000Y-25380000D02*
X80540000Y-35540000D01*
G04 #@! TO.C,R1*
X39735000Y-30045000D02*
X41735000Y-30045000D01*
X41735000Y-32185000D02*
X39735000Y-32185000D01*
G04 #@! TO.C,R2*
X72390000Y-44105000D02*
X72390000Y-43215000D01*
X72390000Y-35905000D02*
X72390000Y-36795000D01*
X73700000Y-43215000D02*
X73700000Y-36795000D01*
X71080000Y-43215000D02*
X73700000Y-43215000D01*
X71080000Y-36795000D02*
X71080000Y-43215000D01*
X73700000Y-36795000D02*
X71080000Y-36795000D01*
G04 #@! TO.C,R3*
X56080000Y-28845000D02*
X56080000Y-26845000D01*
X58220000Y-26845000D02*
X58220000Y-28845000D01*
G04 #@! TO.C,R4*
X39735000Y-32585000D02*
X41735000Y-32585000D01*
X41735000Y-34725000D02*
X39735000Y-34725000D01*
G04 #@! TO.C,R5*
X51260000Y-34725000D02*
X49260000Y-34725000D01*
X49260000Y-32585000D02*
X51260000Y-32585000D01*
D13*
G04 #@! TO.C,U3*
X33690000Y-39835000D02*
X33640000Y-39835000D01*
X33690000Y-43985000D02*
X33545000Y-43985000D01*
X28540000Y-43985000D02*
X28685000Y-43985000D01*
X28540000Y-39835000D02*
X28685000Y-39835000D01*
X33690000Y-39835000D02*
X33690000Y-43985000D01*
X28540000Y-39835000D02*
X28540000Y-43985000D01*
X33640000Y-39835000D02*
X33640000Y-38435000D01*
G04 #@! TO.C,U4*
X48910000Y-30175000D02*
X48910000Y-31575000D01*
X54010000Y-30175000D02*
X54010000Y-26025000D01*
X48860000Y-30175000D02*
X48860000Y-26025000D01*
X54010000Y-30175000D02*
X53865000Y-30175000D01*
X54010000Y-26025000D02*
X53865000Y-26025000D01*
X48860000Y-26025000D02*
X49005000Y-26025000D01*
X48860000Y-30175000D02*
X48910000Y-30175000D01*
D15*
G04 #@! TO.C,REF\002A\002A\002A*
G36*
X64766241Y-28774184D02*
X64792753Y-28787282D01*
X64825447Y-28810106D01*
X64849275Y-28834996D01*
X64865594Y-28866249D01*
X64875760Y-28908166D01*
X64881128Y-28965044D01*
X64883056Y-29041184D01*
X64883169Y-29073917D01*
X64882839Y-29145656D01*
X64881473Y-29196927D01*
X64878500Y-29232404D01*
X64873351Y-29256763D01*
X64865457Y-29274680D01*
X64857243Y-29286902D01*
X64804813Y-29338905D01*
X64743070Y-29370184D01*
X64676464Y-29379592D01*
X64609442Y-29365980D01*
X64588208Y-29356354D01*
X64537376Y-29329859D01*
X64537376Y-29745052D01*
X64574475Y-29725868D01*
X64623357Y-29711025D01*
X64683439Y-29707222D01*
X64743436Y-29714243D01*
X64788744Y-29730013D01*
X64826325Y-29760047D01*
X64858436Y-29803024D01*
X64860850Y-29807436D01*
X64871033Y-29828221D01*
X64878470Y-29849170D01*
X64883589Y-29874548D01*
X64886819Y-29908618D01*
X64888587Y-29955641D01*
X64889323Y-30019882D01*
X64889456Y-30092176D01*
X64889456Y-30322822D01*
X64751139Y-30322822D01*
X64751139Y-29897533D01*
X64712451Y-29864979D01*
X64672262Y-29838940D01*
X64634203Y-29834205D01*
X64595934Y-29846389D01*
X64575538Y-29858320D01*
X64560358Y-29875313D01*
X64549562Y-29900995D01*
X64542317Y-29938991D01*
X64537792Y-29992926D01*
X64535156Y-30066425D01*
X64534228Y-30115347D01*
X64531089Y-30316535D01*
X64465074Y-30320336D01*
X64399060Y-30324136D01*
X64399060Y-29075650D01*
X64537376Y-29075650D01*
X64540903Y-29145254D01*
X64552785Y-29193569D01*
X64574980Y-29223631D01*
X64609441Y-29238471D01*
X64644258Y-29241436D01*
X64683671Y-29238028D01*
X64709829Y-29224617D01*
X64726186Y-29206896D01*
X64739063Y-29187835D01*
X64746728Y-29166601D01*
X64750139Y-29136849D01*
X64750251Y-29092236D01*
X64749103Y-29054880D01*
X64746468Y-28998604D01*
X64742544Y-28961658D01*
X64735937Y-28938223D01*
X64725251Y-28922480D01*
X64715167Y-28913380D01*
X64673030Y-28893537D01*
X64623160Y-28890332D01*
X64594524Y-28897168D01*
X64566172Y-28921464D01*
X64547391Y-28968728D01*
X64538288Y-29038624D01*
X64537376Y-29075650D01*
X64399060Y-29075650D01*
X64399060Y-28763614D01*
X64468218Y-28763614D01*
X64509740Y-28765256D01*
X64531162Y-28771087D01*
X64537374Y-28782461D01*
X64537376Y-28782798D01*
X64540258Y-28793938D01*
X64552970Y-28792673D01*
X64578243Y-28780433D01*
X64637131Y-28761707D01*
X64703385Y-28759739D01*
X64766241Y-28774184D01*
X64766241Y-28774184D01*
G37*
X64766241Y-28774184D02*
X64792753Y-28787282D01*
X64825447Y-28810106D01*
X64849275Y-28834996D01*
X64865594Y-28866249D01*
X64875760Y-28908166D01*
X64881128Y-28965044D01*
X64883056Y-29041184D01*
X64883169Y-29073917D01*
X64882839Y-29145656D01*
X64881473Y-29196927D01*
X64878500Y-29232404D01*
X64873351Y-29256763D01*
X64865457Y-29274680D01*
X64857243Y-29286902D01*
X64804813Y-29338905D01*
X64743070Y-29370184D01*
X64676464Y-29379592D01*
X64609442Y-29365980D01*
X64588208Y-29356354D01*
X64537376Y-29329859D01*
X64537376Y-29745052D01*
X64574475Y-29725868D01*
X64623357Y-29711025D01*
X64683439Y-29707222D01*
X64743436Y-29714243D01*
X64788744Y-29730013D01*
X64826325Y-29760047D01*
X64858436Y-29803024D01*
X64860850Y-29807436D01*
X64871033Y-29828221D01*
X64878470Y-29849170D01*
X64883589Y-29874548D01*
X64886819Y-29908618D01*
X64888587Y-29955641D01*
X64889323Y-30019882D01*
X64889456Y-30092176D01*
X64889456Y-30322822D01*
X64751139Y-30322822D01*
X64751139Y-29897533D01*
X64712451Y-29864979D01*
X64672262Y-29838940D01*
X64634203Y-29834205D01*
X64595934Y-29846389D01*
X64575538Y-29858320D01*
X64560358Y-29875313D01*
X64549562Y-29900995D01*
X64542317Y-29938991D01*
X64537792Y-29992926D01*
X64535156Y-30066425D01*
X64534228Y-30115347D01*
X64531089Y-30316535D01*
X64465074Y-30320336D01*
X64399060Y-30324136D01*
X64399060Y-29075650D01*
X64537376Y-29075650D01*
X64540903Y-29145254D01*
X64552785Y-29193569D01*
X64574980Y-29223631D01*
X64609441Y-29238471D01*
X64644258Y-29241436D01*
X64683671Y-29238028D01*
X64709829Y-29224617D01*
X64726186Y-29206896D01*
X64739063Y-29187835D01*
X64746728Y-29166601D01*
X64750139Y-29136849D01*
X64750251Y-29092236D01*
X64749103Y-29054880D01*
X64746468Y-28998604D01*
X64742544Y-28961658D01*
X64735937Y-28938223D01*
X64725251Y-28922480D01*
X64715167Y-28913380D01*
X64673030Y-28893537D01*
X64623160Y-28890332D01*
X64594524Y-28897168D01*
X64566172Y-28921464D01*
X64547391Y-28968728D01*
X64538288Y-29038624D01*
X64537376Y-29075650D01*
X64399060Y-29075650D01*
X64399060Y-28763614D01*
X64468218Y-28763614D01*
X64509740Y-28765256D01*
X64531162Y-28771087D01*
X64537374Y-28782461D01*
X64537376Y-28782798D01*
X64540258Y-28793938D01*
X64552970Y-28792673D01*
X64578243Y-28780433D01*
X64637131Y-28761707D01*
X64703385Y-28759739D01*
X64766241Y-28774184D01*
G36*
X65290790Y-29711555D02*
X65349945Y-29727339D01*
X65394977Y-29755948D01*
X65426754Y-29793419D01*
X65436634Y-29809411D01*
X65443927Y-29826163D01*
X65449026Y-29847592D01*
X65452321Y-29877616D01*
X65454203Y-29920154D01*
X65455063Y-29979122D01*
X65455293Y-30058440D01*
X65455297Y-30079484D01*
X65455297Y-30322822D01*
X65394941Y-30322822D01*
X65356443Y-30320126D01*
X65327977Y-30313295D01*
X65320845Y-30309083D01*
X65301348Y-30301813D01*
X65281434Y-30309083D01*
X65248647Y-30318160D01*
X65201022Y-30321813D01*
X65148236Y-30320228D01*
X65099964Y-30313589D01*
X65071782Y-30305072D01*
X65017247Y-30270063D01*
X64983165Y-30221479D01*
X64967843Y-30156882D01*
X64967701Y-30155223D01*
X64969045Y-30126566D01*
X65090644Y-30126566D01*
X65101274Y-30159161D01*
X65118590Y-30177505D01*
X65153348Y-30191379D01*
X65199227Y-30196917D01*
X65246012Y-30194191D01*
X65283486Y-30183274D01*
X65293985Y-30176269D01*
X65312332Y-30143904D01*
X65316980Y-30107111D01*
X65316980Y-30058763D01*
X65247418Y-30058763D01*
X65181333Y-30063850D01*
X65131236Y-30078263D01*
X65100071Y-30100729D01*
X65090644Y-30126566D01*
X64969045Y-30126566D01*
X64971013Y-30084647D01*
X64994290Y-30028845D01*
X65038052Y-29986647D01*
X65044101Y-29982808D01*
X65070093Y-29970309D01*
X65102265Y-29962740D01*
X65147240Y-29959061D01*
X65200669Y-29958216D01*
X65316980Y-29958169D01*
X65316980Y-29909411D01*
X65312047Y-29871581D01*
X65299457Y-29846236D01*
X65297983Y-29844887D01*
X65269966Y-29833800D01*
X65227674Y-29829503D01*
X65180936Y-29831615D01*
X65139582Y-29839756D01*
X65115043Y-29851965D01*
X65101747Y-29861746D01*
X65087706Y-29863613D01*
X65068329Y-29855600D01*
X65039024Y-29835739D01*
X64995197Y-29802063D01*
X64991175Y-29798909D01*
X64993236Y-29787236D01*
X65010432Y-29767822D01*
X65036567Y-29746248D01*
X65065448Y-29728096D01*
X65074522Y-29723809D01*
X65107620Y-29715256D01*
X65156120Y-29709155D01*
X65210305Y-29706708D01*
X65212839Y-29706703D01*
X65290790Y-29711555D01*
X65290790Y-29711555D01*
G37*
X65290790Y-29711555D02*
X65349945Y-29727339D01*
X65394977Y-29755948D01*
X65426754Y-29793419D01*
X65436634Y-29809411D01*
X65443927Y-29826163D01*
X65449026Y-29847592D01*
X65452321Y-29877616D01*
X65454203Y-29920154D01*
X65455063Y-29979122D01*
X65455293Y-30058440D01*
X65455297Y-30079484D01*
X65455297Y-30322822D01*
X65394941Y-30322822D01*
X65356443Y-30320126D01*
X65327977Y-30313295D01*
X65320845Y-30309083D01*
X65301348Y-30301813D01*
X65281434Y-30309083D01*
X65248647Y-30318160D01*
X65201022Y-30321813D01*
X65148236Y-30320228D01*
X65099964Y-30313589D01*
X65071782Y-30305072D01*
X65017247Y-30270063D01*
X64983165Y-30221479D01*
X64967843Y-30156882D01*
X64967701Y-30155223D01*
X64969045Y-30126566D01*
X65090644Y-30126566D01*
X65101274Y-30159161D01*
X65118590Y-30177505D01*
X65153348Y-30191379D01*
X65199227Y-30196917D01*
X65246012Y-30194191D01*
X65283486Y-30183274D01*
X65293985Y-30176269D01*
X65312332Y-30143904D01*
X65316980Y-30107111D01*
X65316980Y-30058763D01*
X65247418Y-30058763D01*
X65181333Y-30063850D01*
X65131236Y-30078263D01*
X65100071Y-30100729D01*
X65090644Y-30126566D01*
X64969045Y-30126566D01*
X64971013Y-30084647D01*
X64994290Y-30028845D01*
X65038052Y-29986647D01*
X65044101Y-29982808D01*
X65070093Y-29970309D01*
X65102265Y-29962740D01*
X65147240Y-29959061D01*
X65200669Y-29958216D01*
X65316980Y-29958169D01*
X65316980Y-29909411D01*
X65312047Y-29871581D01*
X65299457Y-29846236D01*
X65297983Y-29844887D01*
X65269966Y-29833800D01*
X65227674Y-29829503D01*
X65180936Y-29831615D01*
X65139582Y-29839756D01*
X65115043Y-29851965D01*
X65101747Y-29861746D01*
X65087706Y-29863613D01*
X65068329Y-29855600D01*
X65039024Y-29835739D01*
X64995197Y-29802063D01*
X64991175Y-29798909D01*
X64993236Y-29787236D01*
X65010432Y-29767822D01*
X65036567Y-29746248D01*
X65065448Y-29728096D01*
X65074522Y-29723809D01*
X65107620Y-29715256D01*
X65156120Y-29709155D01*
X65210305Y-29706708D01*
X65212839Y-29706703D01*
X65290790Y-29711555D01*
G36*
X65681644Y-29708020D02*
X65700461Y-29713660D01*
X65706527Y-29726053D01*
X65706782Y-29731647D01*
X65707871Y-29747230D01*
X65715368Y-29749676D01*
X65735619Y-29738993D01*
X65747649Y-29731694D01*
X65785600Y-29716063D01*
X65830928Y-29708334D01*
X65878456Y-29707740D01*
X65923005Y-29713513D01*
X65959398Y-29724884D01*
X65982457Y-29741088D01*
X65987004Y-29761355D01*
X65984709Y-29766843D01*
X65967980Y-29789626D01*
X65942037Y-29817647D01*
X65937345Y-29822177D01*
X65912617Y-29843005D01*
X65891282Y-29849735D01*
X65861445Y-29845038D01*
X65849492Y-29841917D01*
X65812295Y-29834421D01*
X65786141Y-29837792D01*
X65764054Y-29849681D01*
X65743822Y-29865635D01*
X65728921Y-29885700D01*
X65718566Y-29913702D01*
X65711971Y-29953467D01*
X65708351Y-30008823D01*
X65706922Y-30083594D01*
X65706782Y-30128740D01*
X65706782Y-30322822D01*
X65581040Y-30322822D01*
X65581040Y-29706683D01*
X65643911Y-29706683D01*
X65681644Y-29708020D01*
X65681644Y-29708020D01*
G37*
X65681644Y-29708020D02*
X65700461Y-29713660D01*
X65706527Y-29726053D01*
X65706782Y-29731647D01*
X65707871Y-29747230D01*
X65715368Y-29749676D01*
X65735619Y-29738993D01*
X65747649Y-29731694D01*
X65785600Y-29716063D01*
X65830928Y-29708334D01*
X65878456Y-29707740D01*
X65923005Y-29713513D01*
X65959398Y-29724884D01*
X65982457Y-29741088D01*
X65987004Y-29761355D01*
X65984709Y-29766843D01*
X65967980Y-29789626D01*
X65942037Y-29817647D01*
X65937345Y-29822177D01*
X65912617Y-29843005D01*
X65891282Y-29849735D01*
X65861445Y-29845038D01*
X65849492Y-29841917D01*
X65812295Y-29834421D01*
X65786141Y-29837792D01*
X65764054Y-29849681D01*
X65743822Y-29865635D01*
X65728921Y-29885700D01*
X65718566Y-29913702D01*
X65711971Y-29953467D01*
X65708351Y-30008823D01*
X65706922Y-30083594D01*
X65706782Y-30128740D01*
X65706782Y-30322822D01*
X65581040Y-30322822D01*
X65581040Y-29706683D01*
X65643911Y-29706683D01*
X65681644Y-29708020D01*
G36*
X66473812Y-30322822D02*
X66404654Y-30322822D01*
X66364512Y-30321645D01*
X66343606Y-30316772D01*
X66336078Y-30306186D01*
X66335495Y-30299029D01*
X66334226Y-30284676D01*
X66326221Y-30281923D01*
X66305185Y-30290771D01*
X66288827Y-30299029D01*
X66226023Y-30318597D01*
X66157752Y-30319729D01*
X66102248Y-30305135D01*
X66050562Y-30269877D01*
X66011162Y-30217835D01*
X65989587Y-30156450D01*
X65989038Y-30153018D01*
X65985833Y-30115571D01*
X65984239Y-30061813D01*
X65984367Y-30021155D01*
X66121721Y-30021155D01*
X66124903Y-30075194D01*
X66132141Y-30119735D01*
X66141940Y-30144888D01*
X66179011Y-30179260D01*
X66223026Y-30191582D01*
X66268416Y-30181618D01*
X66307203Y-30151895D01*
X66321892Y-30131905D01*
X66330481Y-30108050D01*
X66334504Y-30073230D01*
X66335495Y-30020930D01*
X66333722Y-29969139D01*
X66329037Y-29923634D01*
X66322397Y-29893181D01*
X66321290Y-29890452D01*
X66294509Y-29858000D01*
X66255421Y-29840183D01*
X66211685Y-29837306D01*
X66170962Y-29849674D01*
X66140913Y-29877593D01*
X66137796Y-29883148D01*
X66128039Y-29917022D01*
X66122723Y-29965728D01*
X66121721Y-30021155D01*
X65984367Y-30021155D01*
X65984432Y-30000540D01*
X65985336Y-29967563D01*
X65991486Y-29885981D01*
X66004267Y-29824730D01*
X66025529Y-29779449D01*
X66057122Y-29745779D01*
X66087793Y-29726014D01*
X66130646Y-29712120D01*
X66183944Y-29707354D01*
X66238520Y-29711236D01*
X66285208Y-29723282D01*
X66309876Y-29737693D01*
X66335495Y-29760878D01*
X66335495Y-29467773D01*
X66473812Y-29467773D01*
X66473812Y-30322822D01*
X66473812Y-30322822D01*
G37*
X66473812Y-30322822D02*
X66404654Y-30322822D01*
X66364512Y-30321645D01*
X66343606Y-30316772D01*
X66336078Y-30306186D01*
X66335495Y-30299029D01*
X66334226Y-30284676D01*
X66326221Y-30281923D01*
X66305185Y-30290771D01*
X66288827Y-30299029D01*
X66226023Y-30318597D01*
X66157752Y-30319729D01*
X66102248Y-30305135D01*
X66050562Y-30269877D01*
X66011162Y-30217835D01*
X65989587Y-30156450D01*
X65989038Y-30153018D01*
X65985833Y-30115571D01*
X65984239Y-30061813D01*
X65984367Y-30021155D01*
X66121721Y-30021155D01*
X66124903Y-30075194D01*
X66132141Y-30119735D01*
X66141940Y-30144888D01*
X66179011Y-30179260D01*
X66223026Y-30191582D01*
X66268416Y-30181618D01*
X66307203Y-30151895D01*
X66321892Y-30131905D01*
X66330481Y-30108050D01*
X66334504Y-30073230D01*
X66335495Y-30020930D01*
X66333722Y-29969139D01*
X66329037Y-29923634D01*
X66322397Y-29893181D01*
X66321290Y-29890452D01*
X66294509Y-29858000D01*
X66255421Y-29840183D01*
X66211685Y-29837306D01*
X66170962Y-29849674D01*
X66140913Y-29877593D01*
X66137796Y-29883148D01*
X66128039Y-29917022D01*
X66122723Y-29965728D01*
X66121721Y-30021155D01*
X65984367Y-30021155D01*
X65984432Y-30000540D01*
X65985336Y-29967563D01*
X65991486Y-29885981D01*
X66004267Y-29824730D01*
X66025529Y-29779449D01*
X66057122Y-29745779D01*
X66087793Y-29726014D01*
X66130646Y-29712120D01*
X66183944Y-29707354D01*
X66238520Y-29711236D01*
X66285208Y-29723282D01*
X66309876Y-29737693D01*
X66335495Y-29760878D01*
X66335495Y-29467773D01*
X66473812Y-29467773D01*
X66473812Y-30322822D01*
G36*
X66956524Y-29709237D02*
X67006255Y-29712971D01*
X67136291Y-30102773D01*
X67156678Y-30033614D01*
X67168946Y-29990874D01*
X67185085Y-29933115D01*
X67202512Y-29869625D01*
X67211726Y-29835570D01*
X67246388Y-29706683D01*
X67389391Y-29706683D01*
X67346646Y-29841857D01*
X67325596Y-29908342D01*
X67300167Y-29988539D01*
X67273610Y-30072193D01*
X67249902Y-30146782D01*
X67195902Y-30316535D01*
X67137598Y-30320328D01*
X67079295Y-30324122D01*
X67047679Y-30219734D01*
X67028182Y-30154889D01*
X67006904Y-30083400D01*
X66988308Y-30020263D01*
X66987574Y-30017750D01*
X66973684Y-29974969D01*
X66961429Y-29945779D01*
X66952846Y-29934741D01*
X66951082Y-29936018D01*
X66944891Y-29953130D01*
X66933128Y-29989787D01*
X66917225Y-30041378D01*
X66898614Y-30103294D01*
X66888543Y-30137352D01*
X66834007Y-30322822D01*
X66718264Y-30322822D01*
X66625737Y-30030471D01*
X66599744Y-29948462D01*
X66576066Y-29873987D01*
X66555820Y-29810544D01*
X66540126Y-29761632D01*
X66530102Y-29730749D01*
X66527055Y-29721726D01*
X66529467Y-29712487D01*
X66548408Y-29708441D01*
X66587823Y-29708846D01*
X66593993Y-29709152D01*
X66667086Y-29712971D01*
X66714957Y-29889010D01*
X66732553Y-29953211D01*
X66748277Y-30009649D01*
X66760746Y-30053422D01*
X66768574Y-30079630D01*
X66770020Y-30083903D01*
X66776014Y-30078990D01*
X66788101Y-30053532D01*
X66804893Y-30010997D01*
X66825003Y-29954850D01*
X66842003Y-29904130D01*
X66906794Y-29705504D01*
X66956524Y-29709237D01*
X66956524Y-29709237D01*
G37*
X66956524Y-29709237D02*
X67006255Y-29712971D01*
X67136291Y-30102773D01*
X67156678Y-30033614D01*
X67168946Y-29990874D01*
X67185085Y-29933115D01*
X67202512Y-29869625D01*
X67211726Y-29835570D01*
X67246388Y-29706683D01*
X67389391Y-29706683D01*
X67346646Y-29841857D01*
X67325596Y-29908342D01*
X67300167Y-29988539D01*
X67273610Y-30072193D01*
X67249902Y-30146782D01*
X67195902Y-30316535D01*
X67137598Y-30320328D01*
X67079295Y-30324122D01*
X67047679Y-30219734D01*
X67028182Y-30154889D01*
X67006904Y-30083400D01*
X66988308Y-30020263D01*
X66987574Y-30017750D01*
X66973684Y-29974969D01*
X66961429Y-29945779D01*
X66952846Y-29934741D01*
X66951082Y-29936018D01*
X66944891Y-29953130D01*
X66933128Y-29989787D01*
X66917225Y-30041378D01*
X66898614Y-30103294D01*
X66888543Y-30137352D01*
X66834007Y-30322822D01*
X66718264Y-30322822D01*
X66625737Y-30030471D01*
X66599744Y-29948462D01*
X66576066Y-29873987D01*
X66555820Y-29810544D01*
X66540126Y-29761632D01*
X66530102Y-29730749D01*
X66527055Y-29721726D01*
X66529467Y-29712487D01*
X66548408Y-29708441D01*
X66587823Y-29708846D01*
X66593993Y-29709152D01*
X66667086Y-29712971D01*
X66714957Y-29889010D01*
X66732553Y-29953211D01*
X66748277Y-30009649D01*
X66760746Y-30053422D01*
X66768574Y-30079630D01*
X66770020Y-30083903D01*
X66776014Y-30078990D01*
X66788101Y-30053532D01*
X66804893Y-30010997D01*
X66825003Y-29954850D01*
X66842003Y-29904130D01*
X66906794Y-29705504D01*
X66956524Y-29709237D01*
G36*
X67713411Y-29710417D02*
X67766411Y-29723290D01*
X67781731Y-29730110D01*
X67811428Y-29747974D01*
X67834220Y-29768093D01*
X67851083Y-29793962D01*
X67862998Y-29829073D01*
X67870942Y-29876920D01*
X67875894Y-29940996D01*
X67878831Y-30024794D01*
X67879947Y-30080768D01*
X67884052Y-30322822D01*
X67813932Y-30322822D01*
X67771393Y-30321038D01*
X67749476Y-30314942D01*
X67743812Y-30304706D01*
X67740821Y-30293637D01*
X67727451Y-30295754D01*
X67709233Y-30304629D01*
X67663624Y-30318233D01*
X67605007Y-30321899D01*
X67543354Y-30315903D01*
X67488638Y-30300521D01*
X67483730Y-30298386D01*
X67433723Y-30263255D01*
X67400756Y-30214419D01*
X67385587Y-30157333D01*
X67386746Y-30136824D01*
X67510508Y-30136824D01*
X67521413Y-30164425D01*
X67553745Y-30184204D01*
X67605910Y-30194819D01*
X67633787Y-30196228D01*
X67680247Y-30192620D01*
X67711129Y-30178597D01*
X67718664Y-30171931D01*
X67739076Y-30135666D01*
X67743812Y-30102773D01*
X67743812Y-30058763D01*
X67682513Y-30058763D01*
X67611256Y-30062395D01*
X67561276Y-30073818D01*
X67529696Y-30093824D01*
X67522626Y-30102743D01*
X67510508Y-30136824D01*
X67386746Y-30136824D01*
X67388971Y-30097456D01*
X67411663Y-30040244D01*
X67442624Y-30001580D01*
X67461376Y-29984864D01*
X67479733Y-29973878D01*
X67503619Y-29967180D01*
X67538957Y-29963326D01*
X67591669Y-29960873D01*
X67612577Y-29960168D01*
X67743812Y-29955879D01*
X67743620Y-29916158D01*
X67738537Y-29874405D01*
X67720162Y-29849158D01*
X67683039Y-29833030D01*
X67682043Y-29832742D01*
X67629410Y-29826400D01*
X67577906Y-29834684D01*
X67539630Y-29854827D01*
X67524272Y-29864773D01*
X67507730Y-29863397D01*
X67482275Y-29848987D01*
X67467328Y-29838817D01*
X67438091Y-29817088D01*
X67419980Y-29800800D01*
X67417074Y-29796137D01*
X67429040Y-29772005D01*
X67464396Y-29743185D01*
X67479753Y-29733461D01*
X67523901Y-29716714D01*
X67583398Y-29707227D01*
X67649487Y-29705095D01*
X67713411Y-29710417D01*
X67713411Y-29710417D01*
G37*
X67713411Y-29710417D02*
X67766411Y-29723290D01*
X67781731Y-29730110D01*
X67811428Y-29747974D01*
X67834220Y-29768093D01*
X67851083Y-29793962D01*
X67862998Y-29829073D01*
X67870942Y-29876920D01*
X67875894Y-29940996D01*
X67878831Y-30024794D01*
X67879947Y-30080768D01*
X67884052Y-30322822D01*
X67813932Y-30322822D01*
X67771393Y-30321038D01*
X67749476Y-30314942D01*
X67743812Y-30304706D01*
X67740821Y-30293637D01*
X67727451Y-30295754D01*
X67709233Y-30304629D01*
X67663624Y-30318233D01*
X67605007Y-30321899D01*
X67543354Y-30315903D01*
X67488638Y-30300521D01*
X67483730Y-30298386D01*
X67433723Y-30263255D01*
X67400756Y-30214419D01*
X67385587Y-30157333D01*
X67386746Y-30136824D01*
X67510508Y-30136824D01*
X67521413Y-30164425D01*
X67553745Y-30184204D01*
X67605910Y-30194819D01*
X67633787Y-30196228D01*
X67680247Y-30192620D01*
X67711129Y-30178597D01*
X67718664Y-30171931D01*
X67739076Y-30135666D01*
X67743812Y-30102773D01*
X67743812Y-30058763D01*
X67682513Y-30058763D01*
X67611256Y-30062395D01*
X67561276Y-30073818D01*
X67529696Y-30093824D01*
X67522626Y-30102743D01*
X67510508Y-30136824D01*
X67386746Y-30136824D01*
X67388971Y-30097456D01*
X67411663Y-30040244D01*
X67442624Y-30001580D01*
X67461376Y-29984864D01*
X67479733Y-29973878D01*
X67503619Y-29967180D01*
X67538957Y-29963326D01*
X67591669Y-29960873D01*
X67612577Y-29960168D01*
X67743812Y-29955879D01*
X67743620Y-29916158D01*
X67738537Y-29874405D01*
X67720162Y-29849158D01*
X67683039Y-29833030D01*
X67682043Y-29832742D01*
X67629410Y-29826400D01*
X67577906Y-29834684D01*
X67539630Y-29854827D01*
X67524272Y-29864773D01*
X67507730Y-29863397D01*
X67482275Y-29848987D01*
X67467328Y-29838817D01*
X67438091Y-29817088D01*
X67419980Y-29800800D01*
X67417074Y-29796137D01*
X67429040Y-29772005D01*
X67464396Y-29743185D01*
X67479753Y-29733461D01*
X67523901Y-29716714D01*
X67583398Y-29707227D01*
X67649487Y-29705095D01*
X67713411Y-29710417D01*
G36*
X68310255Y-29706486D02*
X68358595Y-29716015D01*
X68386114Y-29730125D01*
X68415064Y-29753568D01*
X68373876Y-29805571D01*
X68348482Y-29837064D01*
X68331238Y-29852428D01*
X68314102Y-29854776D01*
X68289027Y-29847217D01*
X68277257Y-29842941D01*
X68229270Y-29836631D01*
X68185324Y-29850156D01*
X68153060Y-29880710D01*
X68147819Y-29890452D01*
X68142112Y-29916258D01*
X68137706Y-29963817D01*
X68134811Y-30029758D01*
X68133631Y-30110710D01*
X68133614Y-30122226D01*
X68133614Y-30322822D01*
X67995297Y-30322822D01*
X67995297Y-29706683D01*
X68064456Y-29706683D01*
X68104333Y-29707725D01*
X68125107Y-29712358D01*
X68132789Y-29722849D01*
X68133614Y-29732745D01*
X68133614Y-29758806D01*
X68166745Y-29732745D01*
X68204735Y-29714965D01*
X68255770Y-29706174D01*
X68310255Y-29706486D01*
X68310255Y-29706486D01*
G37*
X68310255Y-29706486D02*
X68358595Y-29716015D01*
X68386114Y-29730125D01*
X68415064Y-29753568D01*
X68373876Y-29805571D01*
X68348482Y-29837064D01*
X68331238Y-29852428D01*
X68314102Y-29854776D01*
X68289027Y-29847217D01*
X68277257Y-29842941D01*
X68229270Y-29836631D01*
X68185324Y-29850156D01*
X68153060Y-29880710D01*
X68147819Y-29890452D01*
X68142112Y-29916258D01*
X68137706Y-29963817D01*
X68134811Y-30029758D01*
X68133631Y-30110710D01*
X68133614Y-30122226D01*
X68133614Y-30322822D01*
X67995297Y-30322822D01*
X67995297Y-29706683D01*
X68064456Y-29706683D01*
X68104333Y-29707725D01*
X68125107Y-29712358D01*
X68132789Y-29722849D01*
X68133614Y-29732745D01*
X68133614Y-29758806D01*
X68166745Y-29732745D01*
X68204735Y-29714965D01*
X68255770Y-29706174D01*
X68310255Y-29706486D01*
G36*
X68707581Y-29709970D02*
X68767685Y-29725597D01*
X68818021Y-29757848D01*
X68842393Y-29781940D01*
X68882345Y-29838895D01*
X68905242Y-29904965D01*
X68913108Y-29986182D01*
X68913148Y-29992748D01*
X68913218Y-30058763D01*
X68533264Y-30058763D01*
X68541363Y-30093342D01*
X68555987Y-30124659D01*
X68581581Y-30157291D01*
X68586935Y-30162500D01*
X68632943Y-30190694D01*
X68685410Y-30195475D01*
X68745803Y-30176926D01*
X68756040Y-30171931D01*
X68787439Y-30156745D01*
X68808470Y-30148094D01*
X68812139Y-30147293D01*
X68824948Y-30155063D01*
X68849378Y-30174072D01*
X68861779Y-30184460D01*
X68887476Y-30208321D01*
X68895915Y-30224077D01*
X68890058Y-30238571D01*
X68886928Y-30242534D01*
X68865725Y-30259879D01*
X68830738Y-30280959D01*
X68806337Y-30293265D01*
X68737072Y-30314946D01*
X68660388Y-30321971D01*
X68587765Y-30313647D01*
X68567426Y-30307686D01*
X68504476Y-30273952D01*
X68457815Y-30222045D01*
X68427173Y-30151459D01*
X68412282Y-30061692D01*
X68410647Y-30014753D01*
X68415421Y-29946413D01*
X68535990Y-29946413D01*
X68547652Y-29951465D01*
X68578998Y-29955429D01*
X68624571Y-29957768D01*
X68655446Y-29958169D01*
X68710981Y-29957783D01*
X68746033Y-29955975D01*
X68765262Y-29951773D01*
X68773330Y-29944203D01*
X68774901Y-29933218D01*
X68764121Y-29899381D01*
X68736980Y-29865940D01*
X68701277Y-29840272D01*
X68665560Y-29829772D01*
X68617048Y-29839086D01*
X68575053Y-29866013D01*
X68545936Y-29904827D01*
X68535990Y-29946413D01*
X68415421Y-29946413D01*
X68417599Y-29915236D01*
X68439055Y-29835949D01*
X68475470Y-29776263D01*
X68527297Y-29735549D01*
X68594990Y-29713179D01*
X68631662Y-29708871D01*
X68707581Y-29709970D01*
X68707581Y-29709970D01*
G37*
X68707581Y-29709970D02*
X68767685Y-29725597D01*
X68818021Y-29757848D01*
X68842393Y-29781940D01*
X68882345Y-29838895D01*
X68905242Y-29904965D01*
X68913108Y-29986182D01*
X68913148Y-29992748D01*
X68913218Y-30058763D01*
X68533264Y-30058763D01*
X68541363Y-30093342D01*
X68555987Y-30124659D01*
X68581581Y-30157291D01*
X68586935Y-30162500D01*
X68632943Y-30190694D01*
X68685410Y-30195475D01*
X68745803Y-30176926D01*
X68756040Y-30171931D01*
X68787439Y-30156745D01*
X68808470Y-30148094D01*
X68812139Y-30147293D01*
X68824948Y-30155063D01*
X68849378Y-30174072D01*
X68861779Y-30184460D01*
X68887476Y-30208321D01*
X68895915Y-30224077D01*
X68890058Y-30238571D01*
X68886928Y-30242534D01*
X68865725Y-30259879D01*
X68830738Y-30280959D01*
X68806337Y-30293265D01*
X68737072Y-30314946D01*
X68660388Y-30321971D01*
X68587765Y-30313647D01*
X68567426Y-30307686D01*
X68504476Y-30273952D01*
X68457815Y-30222045D01*
X68427173Y-30151459D01*
X68412282Y-30061692D01*
X68410647Y-30014753D01*
X68415421Y-29946413D01*
X68535990Y-29946413D01*
X68547652Y-29951465D01*
X68578998Y-29955429D01*
X68624571Y-29957768D01*
X68655446Y-29958169D01*
X68710981Y-29957783D01*
X68746033Y-29955975D01*
X68765262Y-29951773D01*
X68773330Y-29944203D01*
X68774901Y-29933218D01*
X68764121Y-29899381D01*
X68736980Y-29865940D01*
X68701277Y-29840272D01*
X68665560Y-29829772D01*
X68617048Y-29839086D01*
X68575053Y-29866013D01*
X68545936Y-29904827D01*
X68535990Y-29946413D01*
X68415421Y-29946413D01*
X68417599Y-29915236D01*
X68439055Y-29835949D01*
X68475470Y-29776263D01*
X68527297Y-29735549D01*
X68594990Y-29713179D01*
X68631662Y-29708871D01*
X68707581Y-29709970D01*
G36*
X64136739Y-28770148D02*
X64202521Y-28799231D01*
X64252460Y-28847793D01*
X64286626Y-28915908D01*
X64305093Y-29003651D01*
X64306417Y-29017351D01*
X64307454Y-29113939D01*
X64294007Y-29198602D01*
X64266892Y-29267221D01*
X64252373Y-29289294D01*
X64201799Y-29336011D01*
X64137391Y-29366268D01*
X64065334Y-29378824D01*
X63991815Y-29372439D01*
X63935928Y-29352772D01*
X63887868Y-29319629D01*
X63848588Y-29276175D01*
X63847908Y-29275158D01*
X63831956Y-29248338D01*
X63821590Y-29221368D01*
X63815312Y-29187332D01*
X63811627Y-29139310D01*
X63810003Y-29099931D01*
X63809328Y-29064219D01*
X63935045Y-29064219D01*
X63936274Y-29099770D01*
X63940734Y-29147094D01*
X63948603Y-29177465D01*
X63962793Y-29199072D01*
X63976083Y-29211694D01*
X64023198Y-29238122D01*
X64072495Y-29241653D01*
X64118407Y-29222639D01*
X64141362Y-29201331D01*
X64157904Y-29179859D01*
X64167579Y-29159313D01*
X64171826Y-29132574D01*
X64172080Y-29092523D01*
X64170772Y-29055638D01*
X64167957Y-29002947D01*
X64163495Y-28968772D01*
X64155452Y-28946480D01*
X64141897Y-28929442D01*
X64131155Y-28919703D01*
X64086223Y-28894123D01*
X64037751Y-28892847D01*
X63997106Y-28907999D01*
X63962433Y-28939642D01*
X63941776Y-28991620D01*
X63935045Y-29064219D01*
X63809328Y-29064219D01*
X63808521Y-29021621D01*
X63811052Y-28963056D01*
X63818638Y-28919007D01*
X63832319Y-28884248D01*
X63853135Y-28853551D01*
X63860853Y-28844436D01*
X63909111Y-28799021D01*
X63960872Y-28772493D01*
X64024172Y-28761379D01*
X64055039Y-28760471D01*
X64136739Y-28770148D01*
X64136739Y-28770148D01*
G37*
X64136739Y-28770148D02*
X64202521Y-28799231D01*
X64252460Y-28847793D01*
X64286626Y-28915908D01*
X64305093Y-29003651D01*
X64306417Y-29017351D01*
X64307454Y-29113939D01*
X64294007Y-29198602D01*
X64266892Y-29267221D01*
X64252373Y-29289294D01*
X64201799Y-29336011D01*
X64137391Y-29366268D01*
X64065334Y-29378824D01*
X63991815Y-29372439D01*
X63935928Y-29352772D01*
X63887868Y-29319629D01*
X63848588Y-29276175D01*
X63847908Y-29275158D01*
X63831956Y-29248338D01*
X63821590Y-29221368D01*
X63815312Y-29187332D01*
X63811627Y-29139310D01*
X63810003Y-29099931D01*
X63809328Y-29064219D01*
X63935045Y-29064219D01*
X63936274Y-29099770D01*
X63940734Y-29147094D01*
X63948603Y-29177465D01*
X63962793Y-29199072D01*
X63976083Y-29211694D01*
X64023198Y-29238122D01*
X64072495Y-29241653D01*
X64118407Y-29222639D01*
X64141362Y-29201331D01*
X64157904Y-29179859D01*
X64167579Y-29159313D01*
X64171826Y-29132574D01*
X64172080Y-29092523D01*
X64170772Y-29055638D01*
X64167957Y-29002947D01*
X64163495Y-28968772D01*
X64155452Y-28946480D01*
X64141897Y-28929442D01*
X64131155Y-28919703D01*
X64086223Y-28894123D01*
X64037751Y-28892847D01*
X63997106Y-28907999D01*
X63962433Y-28939642D01*
X63941776Y-28991620D01*
X63935045Y-29064219D01*
X63809328Y-29064219D01*
X63808521Y-29021621D01*
X63811052Y-28963056D01*
X63818638Y-28919007D01*
X63832319Y-28884248D01*
X63853135Y-28853551D01*
X63860853Y-28844436D01*
X63909111Y-28799021D01*
X63960872Y-28772493D01*
X64024172Y-28761379D01*
X64055039Y-28760471D01*
X64136739Y-28770148D01*
G36*
X65318301Y-28777614D02*
X65330832Y-28783514D01*
X65374201Y-28815283D01*
X65415210Y-28861646D01*
X65445832Y-28912696D01*
X65454541Y-28936166D01*
X65462488Y-28978091D01*
X65467226Y-29028757D01*
X65467801Y-29049679D01*
X65467871Y-29115693D01*
X65087917Y-29115693D01*
X65096017Y-29150273D01*
X65115896Y-29191170D01*
X65150653Y-29226514D01*
X65192002Y-29249282D01*
X65218351Y-29254010D01*
X65254084Y-29248273D01*
X65296718Y-29233882D01*
X65311201Y-29227262D01*
X65364760Y-29200513D01*
X65410467Y-29235376D01*
X65436842Y-29258955D01*
X65450876Y-29278417D01*
X65451586Y-29284129D01*
X65439049Y-29297973D01*
X65411572Y-29319012D01*
X65386634Y-29335425D01*
X65319336Y-29364930D01*
X65243890Y-29378284D01*
X65169112Y-29374812D01*
X65109505Y-29356663D01*
X65048059Y-29317784D01*
X65004392Y-29266595D01*
X64977074Y-29200367D01*
X64964678Y-29116371D01*
X64963579Y-29077936D01*
X64967978Y-28989861D01*
X64968518Y-28987299D01*
X65094418Y-28987299D01*
X65097885Y-28995558D01*
X65112137Y-29000113D01*
X65141530Y-29002065D01*
X65190425Y-29002517D01*
X65209252Y-29002525D01*
X65266533Y-29001843D01*
X65302859Y-28999364D01*
X65322396Y-28994443D01*
X65329310Y-28986434D01*
X65329555Y-28983862D01*
X65321664Y-28963423D01*
X65301915Y-28934789D01*
X65293425Y-28924763D01*
X65261906Y-28896408D01*
X65229051Y-28885259D01*
X65211349Y-28884327D01*
X65163461Y-28895981D01*
X65123301Y-28927285D01*
X65097827Y-28972752D01*
X65097375Y-28974233D01*
X65094418Y-28987299D01*
X64968518Y-28987299D01*
X64982608Y-28920510D01*
X65008962Y-28865025D01*
X65041193Y-28825639D01*
X65100783Y-28782931D01*
X65170832Y-28760109D01*
X65245339Y-28758046D01*
X65318301Y-28777614D01*
X65318301Y-28777614D01*
G37*
X65318301Y-28777614D02*
X65330832Y-28783514D01*
X65374201Y-28815283D01*
X65415210Y-28861646D01*
X65445832Y-28912696D01*
X65454541Y-28936166D01*
X65462488Y-28978091D01*
X65467226Y-29028757D01*
X65467801Y-29049679D01*
X65467871Y-29115693D01*
X65087917Y-29115693D01*
X65096017Y-29150273D01*
X65115896Y-29191170D01*
X65150653Y-29226514D01*
X65192002Y-29249282D01*
X65218351Y-29254010D01*
X65254084Y-29248273D01*
X65296718Y-29233882D01*
X65311201Y-29227262D01*
X65364760Y-29200513D01*
X65410467Y-29235376D01*
X65436842Y-29258955D01*
X65450876Y-29278417D01*
X65451586Y-29284129D01*
X65439049Y-29297973D01*
X65411572Y-29319012D01*
X65386634Y-29335425D01*
X65319336Y-29364930D01*
X65243890Y-29378284D01*
X65169112Y-29374812D01*
X65109505Y-29356663D01*
X65048059Y-29317784D01*
X65004392Y-29266595D01*
X64977074Y-29200367D01*
X64964678Y-29116371D01*
X64963579Y-29077936D01*
X64967978Y-28989861D01*
X64968518Y-28987299D01*
X65094418Y-28987299D01*
X65097885Y-28995558D01*
X65112137Y-29000113D01*
X65141530Y-29002065D01*
X65190425Y-29002517D01*
X65209252Y-29002525D01*
X65266533Y-29001843D01*
X65302859Y-28999364D01*
X65322396Y-28994443D01*
X65329310Y-28986434D01*
X65329555Y-28983862D01*
X65321664Y-28963423D01*
X65301915Y-28934789D01*
X65293425Y-28924763D01*
X65261906Y-28896408D01*
X65229051Y-28885259D01*
X65211349Y-28884327D01*
X65163461Y-28895981D01*
X65123301Y-28927285D01*
X65097827Y-28972752D01*
X65097375Y-28974233D01*
X65094418Y-28987299D01*
X64968518Y-28987299D01*
X64982608Y-28920510D01*
X65008962Y-28865025D01*
X65041193Y-28825639D01*
X65100783Y-28782931D01*
X65170832Y-28760109D01*
X65245339Y-28758046D01*
X65318301Y-28777614D01*
G36*
X66689017Y-28761452D02*
X66736634Y-28770482D01*
X66786034Y-28789370D01*
X66791312Y-28791777D01*
X66828774Y-28811476D01*
X66854717Y-28829781D01*
X66863103Y-28841508D01*
X66855117Y-28860632D01*
X66835720Y-28888850D01*
X66827110Y-28899384D01*
X66791628Y-28940847D01*
X66745885Y-28913858D01*
X66702350Y-28895878D01*
X66652050Y-28886267D01*
X66603812Y-28885660D01*
X66566467Y-28894691D01*
X66557505Y-28900327D01*
X66540437Y-28926171D01*
X66538363Y-28955941D01*
X66551134Y-28979197D01*
X66558688Y-28983708D01*
X66581325Y-28989309D01*
X66621115Y-28995892D01*
X66670166Y-29002183D01*
X66679215Y-29003170D01*
X66757996Y-29016798D01*
X66815136Y-29039946D01*
X66853030Y-29074752D01*
X66874079Y-29123354D01*
X66880635Y-29182718D01*
X66871577Y-29250198D01*
X66842164Y-29303188D01*
X66792278Y-29341783D01*
X66721800Y-29366081D01*
X66643565Y-29375667D01*
X66579766Y-29375552D01*
X66528016Y-29366845D01*
X66492673Y-29354825D01*
X66448017Y-29333880D01*
X66406747Y-29309574D01*
X66392079Y-29298876D01*
X66354357Y-29268084D01*
X66399852Y-29222049D01*
X66445347Y-29176013D01*
X66497072Y-29210243D01*
X66548952Y-29235952D01*
X66604351Y-29249399D01*
X66657605Y-29250818D01*
X66703049Y-29240443D01*
X66735016Y-29218507D01*
X66745338Y-29199998D01*
X66743789Y-29170314D01*
X66718140Y-29147615D01*
X66668460Y-29131940D01*
X66614031Y-29124695D01*
X66530264Y-29110873D01*
X66468033Y-29084796D01*
X66426507Y-29045699D01*
X66404853Y-28992820D01*
X66401853Y-28930126D01*
X66416671Y-28864642D01*
X66450454Y-28815144D01*
X66503505Y-28781408D01*
X66576126Y-28763207D01*
X66629928Y-28759639D01*
X66689017Y-28761452D01*
X66689017Y-28761452D01*
G37*
X66689017Y-28761452D02*
X66736634Y-28770482D01*
X66786034Y-28789370D01*
X66791312Y-28791777D01*
X66828774Y-28811476D01*
X66854717Y-28829781D01*
X66863103Y-28841508D01*
X66855117Y-28860632D01*
X66835720Y-28888850D01*
X66827110Y-28899384D01*
X66791628Y-28940847D01*
X66745885Y-28913858D01*
X66702350Y-28895878D01*
X66652050Y-28886267D01*
X66603812Y-28885660D01*
X66566467Y-28894691D01*
X66557505Y-28900327D01*
X66540437Y-28926171D01*
X66538363Y-28955941D01*
X66551134Y-28979197D01*
X66558688Y-28983708D01*
X66581325Y-28989309D01*
X66621115Y-28995892D01*
X66670166Y-29002183D01*
X66679215Y-29003170D01*
X66757996Y-29016798D01*
X66815136Y-29039946D01*
X66853030Y-29074752D01*
X66874079Y-29123354D01*
X66880635Y-29182718D01*
X66871577Y-29250198D01*
X66842164Y-29303188D01*
X66792278Y-29341783D01*
X66721800Y-29366081D01*
X66643565Y-29375667D01*
X66579766Y-29375552D01*
X66528016Y-29366845D01*
X66492673Y-29354825D01*
X66448017Y-29333880D01*
X66406747Y-29309574D01*
X66392079Y-29298876D01*
X66354357Y-29268084D01*
X66399852Y-29222049D01*
X66445347Y-29176013D01*
X66497072Y-29210243D01*
X66548952Y-29235952D01*
X66604351Y-29249399D01*
X66657605Y-29250818D01*
X66703049Y-29240443D01*
X66735016Y-29218507D01*
X66745338Y-29199998D01*
X66743789Y-29170314D01*
X66718140Y-29147615D01*
X66668460Y-29131940D01*
X66614031Y-29124695D01*
X66530264Y-29110873D01*
X66468033Y-29084796D01*
X66426507Y-29045699D01*
X66404853Y-28992820D01*
X66401853Y-28930126D01*
X66416671Y-28864642D01*
X66450454Y-28815144D01*
X66503505Y-28781408D01*
X66576126Y-28763207D01*
X66629928Y-28759639D01*
X66689017Y-28761452D01*
G36*
X67285762Y-28771055D02*
X67349363Y-28805692D01*
X67399123Y-28860372D01*
X67422568Y-28904842D01*
X67432634Y-28944121D01*
X67439156Y-29000116D01*
X67441951Y-29064621D01*
X67440836Y-29129429D01*
X67435626Y-29186334D01*
X67429541Y-29216727D01*
X67409014Y-29258306D01*
X67373463Y-29302468D01*
X67330619Y-29341087D01*
X67288211Y-29366034D01*
X67287177Y-29366430D01*
X67234553Y-29377331D01*
X67172188Y-29377601D01*
X67112924Y-29367676D01*
X67090040Y-29359722D01*
X67031102Y-29326300D01*
X66988890Y-29282511D01*
X66961156Y-29224538D01*
X66945651Y-29148565D01*
X66942143Y-29108771D01*
X66942590Y-29058766D01*
X67077376Y-29058766D01*
X67081917Y-29131732D01*
X67094986Y-29187334D01*
X67115756Y-29222861D01*
X67130552Y-29233020D01*
X67168464Y-29240104D01*
X67213527Y-29238007D01*
X67252487Y-29227812D01*
X67262704Y-29222204D01*
X67289659Y-29189538D01*
X67307451Y-29139545D01*
X67315024Y-29078705D01*
X67311325Y-29013497D01*
X67303057Y-28974253D01*
X67279320Y-28928805D01*
X67241849Y-28900396D01*
X67196720Y-28890573D01*
X67150011Y-28900887D01*
X67114132Y-28926112D01*
X67095277Y-28946925D01*
X67084272Y-28967439D01*
X67079026Y-28995203D01*
X67077449Y-29037762D01*
X67077376Y-29058766D01*
X66942590Y-29058766D01*
X66943094Y-29002580D01*
X66960388Y-28915501D01*
X66994029Y-28847530D01*
X67044018Y-28798664D01*
X67110356Y-28768899D01*
X67124601Y-28765448D01*
X67210210Y-28757345D01*
X67285762Y-28771055D01*
X67285762Y-28771055D01*
G37*
X67285762Y-28771055D02*
X67349363Y-28805692D01*
X67399123Y-28860372D01*
X67422568Y-28904842D01*
X67432634Y-28944121D01*
X67439156Y-29000116D01*
X67441951Y-29064621D01*
X67440836Y-29129429D01*
X67435626Y-29186334D01*
X67429541Y-29216727D01*
X67409014Y-29258306D01*
X67373463Y-29302468D01*
X67330619Y-29341087D01*
X67288211Y-29366034D01*
X67287177Y-29366430D01*
X67234553Y-29377331D01*
X67172188Y-29377601D01*
X67112924Y-29367676D01*
X67090040Y-29359722D01*
X67031102Y-29326300D01*
X66988890Y-29282511D01*
X66961156Y-29224538D01*
X66945651Y-29148565D01*
X66942143Y-29108771D01*
X66942590Y-29058766D01*
X67077376Y-29058766D01*
X67081917Y-29131732D01*
X67094986Y-29187334D01*
X67115756Y-29222861D01*
X67130552Y-29233020D01*
X67168464Y-29240104D01*
X67213527Y-29238007D01*
X67252487Y-29227812D01*
X67262704Y-29222204D01*
X67289659Y-29189538D01*
X67307451Y-29139545D01*
X67315024Y-29078705D01*
X67311325Y-29013497D01*
X67303057Y-28974253D01*
X67279320Y-28928805D01*
X67241849Y-28900396D01*
X67196720Y-28890573D01*
X67150011Y-28900887D01*
X67114132Y-28926112D01*
X67095277Y-28946925D01*
X67084272Y-28967439D01*
X67079026Y-28995203D01*
X67077449Y-29037762D01*
X67077376Y-29058766D01*
X66942590Y-29058766D01*
X66943094Y-29002580D01*
X66960388Y-28915501D01*
X66994029Y-28847530D01*
X67044018Y-28798664D01*
X67110356Y-28768899D01*
X67124601Y-28765448D01*
X67210210Y-28757345D01*
X67285762Y-28771055D01*
G36*
X67668367Y-28959342D02*
X67669555Y-29051563D01*
X67673897Y-29121610D01*
X67682558Y-29172381D01*
X67696704Y-29206772D01*
X67717500Y-29227679D01*
X67746110Y-29238000D01*
X67781535Y-29240636D01*
X67818636Y-29237682D01*
X67846818Y-29226889D01*
X67867243Y-29205360D01*
X67881079Y-29170199D01*
X67889491Y-29118510D01*
X67893643Y-29047394D01*
X67894703Y-28959342D01*
X67894703Y-28763614D01*
X68033020Y-28763614D01*
X68033020Y-29367179D01*
X67963862Y-29367179D01*
X67922170Y-29365489D01*
X67900701Y-29359556D01*
X67894703Y-29348293D01*
X67891091Y-29338261D01*
X67876714Y-29340383D01*
X67847736Y-29354580D01*
X67781319Y-29376480D01*
X67710875Y-29374928D01*
X67643377Y-29351147D01*
X67611233Y-29332362D01*
X67586715Y-29312022D01*
X67568804Y-29286573D01*
X67556479Y-29252458D01*
X67548723Y-29206121D01*
X67544516Y-29144007D01*
X67542840Y-29062561D01*
X67542624Y-28999578D01*
X67542624Y-28763614D01*
X67668367Y-28763614D01*
X67668367Y-28959342D01*
X67668367Y-28959342D01*
G37*
X67668367Y-28959342D02*
X67669555Y-29051563D01*
X67673897Y-29121610D01*
X67682558Y-29172381D01*
X67696704Y-29206772D01*
X67717500Y-29227679D01*
X67746110Y-29238000D01*
X67781535Y-29240636D01*
X67818636Y-29237682D01*
X67846818Y-29226889D01*
X67867243Y-29205360D01*
X67881079Y-29170199D01*
X67889491Y-29118510D01*
X67893643Y-29047394D01*
X67894703Y-28959342D01*
X67894703Y-28763614D01*
X68033020Y-28763614D01*
X68033020Y-29367179D01*
X67963862Y-29367179D01*
X67922170Y-29365489D01*
X67900701Y-29359556D01*
X67894703Y-29348293D01*
X67891091Y-29338261D01*
X67876714Y-29340383D01*
X67847736Y-29354580D01*
X67781319Y-29376480D01*
X67710875Y-29374928D01*
X67643377Y-29351147D01*
X67611233Y-29332362D01*
X67586715Y-29312022D01*
X67568804Y-29286573D01*
X67556479Y-29252458D01*
X67548723Y-29206121D01*
X67544516Y-29144007D01*
X67542840Y-29062561D01*
X67542624Y-28999578D01*
X67542624Y-28763614D01*
X67668367Y-28763614D01*
X67668367Y-28959342D01*
G36*
X68892226Y-28768880D02*
X68965080Y-28799830D01*
X68988027Y-28814895D01*
X69017354Y-28838048D01*
X69035764Y-28856253D01*
X69038961Y-28862183D01*
X69029935Y-28875340D01*
X69006837Y-28897667D01*
X68988344Y-28913250D01*
X68937728Y-28953926D01*
X68897760Y-28920295D01*
X68866874Y-28898584D01*
X68836759Y-28891090D01*
X68802292Y-28892920D01*
X68747561Y-28906528D01*
X68709886Y-28934772D01*
X68686991Y-28980433D01*
X68676597Y-29046289D01*
X68676595Y-29046331D01*
X68677494Y-29119939D01*
X68691463Y-29173946D01*
X68719328Y-29210716D01*
X68738325Y-29223168D01*
X68788776Y-29238673D01*
X68842663Y-29238683D01*
X68889546Y-29223638D01*
X68900644Y-29216287D01*
X68928476Y-29197511D01*
X68950236Y-29194434D01*
X68973704Y-29208409D01*
X68999649Y-29233510D01*
X69040716Y-29275880D01*
X68995121Y-29313464D01*
X68924674Y-29355882D01*
X68845233Y-29376785D01*
X68762215Y-29375272D01*
X68707694Y-29361411D01*
X68643970Y-29327135D01*
X68593005Y-29273212D01*
X68569851Y-29235149D01*
X68551099Y-29180536D01*
X68541715Y-29111369D01*
X68541643Y-29036407D01*
X68550824Y-28964409D01*
X68569199Y-28904137D01*
X68572093Y-28897958D01*
X68614952Y-28837351D01*
X68672979Y-28793224D01*
X68741591Y-28766493D01*
X68816201Y-28758073D01*
X68892226Y-28768880D01*
X68892226Y-28768880D01*
G37*
X68892226Y-28768880D02*
X68965080Y-28799830D01*
X68988027Y-28814895D01*
X69017354Y-28838048D01*
X69035764Y-28856253D01*
X69038961Y-28862183D01*
X69029935Y-28875340D01*
X69006837Y-28897667D01*
X68988344Y-28913250D01*
X68937728Y-28953926D01*
X68897760Y-28920295D01*
X68866874Y-28898584D01*
X68836759Y-28891090D01*
X68802292Y-28892920D01*
X68747561Y-28906528D01*
X68709886Y-28934772D01*
X68686991Y-28980433D01*
X68676597Y-29046289D01*
X68676595Y-29046331D01*
X68677494Y-29119939D01*
X68691463Y-29173946D01*
X68719328Y-29210716D01*
X68738325Y-29223168D01*
X68788776Y-29238673D01*
X68842663Y-29238683D01*
X68889546Y-29223638D01*
X68900644Y-29216287D01*
X68928476Y-29197511D01*
X68950236Y-29194434D01*
X68973704Y-29208409D01*
X68999649Y-29233510D01*
X69040716Y-29275880D01*
X68995121Y-29313464D01*
X68924674Y-29355882D01*
X68845233Y-29376785D01*
X68762215Y-29375272D01*
X68707694Y-29361411D01*
X68643970Y-29327135D01*
X68593005Y-29273212D01*
X68569851Y-29235149D01*
X68551099Y-29180536D01*
X68541715Y-29111369D01*
X68541643Y-29036407D01*
X68550824Y-28964409D01*
X68569199Y-28904137D01*
X68572093Y-28897958D01*
X68614952Y-28837351D01*
X68672979Y-28793224D01*
X68741591Y-28766493D01*
X68816201Y-28758073D01*
X68892226Y-28768880D01*
G36*
X69352898Y-28761457D02*
X69385096Y-28769279D01*
X69446825Y-28797921D01*
X69499610Y-28841667D01*
X69536141Y-28894117D01*
X69541160Y-28905893D01*
X69548045Y-28936740D01*
X69552864Y-28982371D01*
X69554505Y-29028492D01*
X69554505Y-29115693D01*
X69372178Y-29115693D01*
X69296979Y-29115978D01*
X69244003Y-29117704D01*
X69210325Y-29122181D01*
X69193020Y-29130720D01*
X69189163Y-29144630D01*
X69195829Y-29165222D01*
X69207770Y-29189315D01*
X69241080Y-29229525D01*
X69287368Y-29249558D01*
X69343944Y-29248905D01*
X69408031Y-29227101D01*
X69463417Y-29200193D01*
X69509375Y-29236532D01*
X69555333Y-29272872D01*
X69512096Y-29312819D01*
X69454374Y-29350563D01*
X69383386Y-29373320D01*
X69307029Y-29379688D01*
X69233199Y-29368268D01*
X69221287Y-29364393D01*
X69156399Y-29330506D01*
X69108130Y-29279986D01*
X69075465Y-29211325D01*
X69057385Y-29123014D01*
X69057175Y-29121121D01*
X69055556Y-29024878D01*
X69062100Y-28990542D01*
X69189852Y-28990542D01*
X69201584Y-28995822D01*
X69233438Y-28999867D01*
X69280397Y-29002176D01*
X69310154Y-29002525D01*
X69365648Y-29002306D01*
X69400346Y-29000916D01*
X69418601Y-28997251D01*
X69424766Y-28990210D01*
X69423195Y-28978690D01*
X69421878Y-28974233D01*
X69399382Y-28932355D01*
X69364003Y-28898604D01*
X69332780Y-28883773D01*
X69291301Y-28884668D01*
X69249269Y-28903164D01*
X69214012Y-28933786D01*
X69192854Y-28971062D01*
X69189852Y-28990542D01*
X69062100Y-28990542D01*
X69071690Y-28940229D01*
X69103698Y-28869191D01*
X69149701Y-28813779D01*
X69207821Y-28776009D01*
X69276180Y-28757896D01*
X69352898Y-28761457D01*
X69352898Y-28761457D01*
G37*
X69352898Y-28761457D02*
X69385096Y-28769279D01*
X69446825Y-28797921D01*
X69499610Y-28841667D01*
X69536141Y-28894117D01*
X69541160Y-28905893D01*
X69548045Y-28936740D01*
X69552864Y-28982371D01*
X69554505Y-29028492D01*
X69554505Y-29115693D01*
X69372178Y-29115693D01*
X69296979Y-29115978D01*
X69244003Y-29117704D01*
X69210325Y-29122181D01*
X69193020Y-29130720D01*
X69189163Y-29144630D01*
X69195829Y-29165222D01*
X69207770Y-29189315D01*
X69241080Y-29229525D01*
X69287368Y-29249558D01*
X69343944Y-29248905D01*
X69408031Y-29227101D01*
X69463417Y-29200193D01*
X69509375Y-29236532D01*
X69555333Y-29272872D01*
X69512096Y-29312819D01*
X69454374Y-29350563D01*
X69383386Y-29373320D01*
X69307029Y-29379688D01*
X69233199Y-29368268D01*
X69221287Y-29364393D01*
X69156399Y-29330506D01*
X69108130Y-29279986D01*
X69075465Y-29211325D01*
X69057385Y-29123014D01*
X69057175Y-29121121D01*
X69055556Y-29024878D01*
X69062100Y-28990542D01*
X69189852Y-28990542D01*
X69201584Y-28995822D01*
X69233438Y-28999867D01*
X69280397Y-29002176D01*
X69310154Y-29002525D01*
X69365648Y-29002306D01*
X69400346Y-29000916D01*
X69418601Y-28997251D01*
X69424766Y-28990210D01*
X69423195Y-28978690D01*
X69421878Y-28974233D01*
X69399382Y-28932355D01*
X69364003Y-28898604D01*
X69332780Y-28883773D01*
X69291301Y-28884668D01*
X69249269Y-28903164D01*
X69214012Y-28933786D01*
X69192854Y-28971062D01*
X69189852Y-28990542D01*
X69062100Y-28990542D01*
X69071690Y-28940229D01*
X69103698Y-28869191D01*
X69149701Y-28813779D01*
X69207821Y-28776009D01*
X69276180Y-28757896D01*
X69352898Y-28761457D01*
G36*
X65920988Y-28774002D02*
X65952283Y-28788950D01*
X65982591Y-28810541D01*
X66005682Y-28835391D01*
X66022500Y-28867087D01*
X66033994Y-28909214D01*
X66041109Y-28965358D01*
X66044793Y-29039106D01*
X66045992Y-29134044D01*
X66046011Y-29143985D01*
X66046287Y-29367179D01*
X65907970Y-29367179D01*
X65907970Y-29161418D01*
X65907872Y-29085189D01*
X65907191Y-29029939D01*
X65905349Y-28991501D01*
X65901767Y-28965706D01*
X65895868Y-28948384D01*
X65887073Y-28935368D01*
X65874820Y-28922507D01*
X65831953Y-28894873D01*
X65785157Y-28889745D01*
X65740576Y-28907217D01*
X65725072Y-28920221D01*
X65713690Y-28932447D01*
X65705519Y-28945540D01*
X65700026Y-28963615D01*
X65696680Y-28990787D01*
X65694949Y-29031170D01*
X65694303Y-29088879D01*
X65694208Y-29159132D01*
X65694208Y-29367179D01*
X65555891Y-29367179D01*
X65555891Y-28763614D01*
X65625050Y-28763614D01*
X65666572Y-28765256D01*
X65687994Y-28771087D01*
X65694205Y-28782461D01*
X65694208Y-28782798D01*
X65697090Y-28793938D01*
X65709801Y-28792674D01*
X65735074Y-28780434D01*
X65792395Y-28762424D01*
X65857963Y-28760421D01*
X65920988Y-28774002D01*
X65920988Y-28774002D01*
G37*
X65920988Y-28774002D02*
X65952283Y-28788950D01*
X65982591Y-28810541D01*
X66005682Y-28835391D01*
X66022500Y-28867087D01*
X66033994Y-28909214D01*
X66041109Y-28965358D01*
X66044793Y-29039106D01*
X66045992Y-29134044D01*
X66046011Y-29143985D01*
X66046287Y-29367179D01*
X65907970Y-29367179D01*
X65907970Y-29161418D01*
X65907872Y-29085189D01*
X65907191Y-29029939D01*
X65905349Y-28991501D01*
X65901767Y-28965706D01*
X65895868Y-28948384D01*
X65887073Y-28935368D01*
X65874820Y-28922507D01*
X65831953Y-28894873D01*
X65785157Y-28889745D01*
X65740576Y-28907217D01*
X65725072Y-28920221D01*
X65713690Y-28932447D01*
X65705519Y-28945540D01*
X65700026Y-28963615D01*
X65696680Y-28990787D01*
X65694949Y-29031170D01*
X65694303Y-29088879D01*
X65694208Y-29159132D01*
X65694208Y-29367179D01*
X65555891Y-29367179D01*
X65555891Y-28763614D01*
X65625050Y-28763614D01*
X65666572Y-28765256D01*
X65687994Y-28771087D01*
X65694205Y-28782461D01*
X65694208Y-28782798D01*
X65697090Y-28793938D01*
X65709801Y-28792674D01*
X65735074Y-28780434D01*
X65792395Y-28762424D01*
X65857963Y-28760421D01*
X65920988Y-28774002D01*
G36*
X68474460Y-28763030D02*
X68517711Y-28776245D01*
X68545558Y-28792941D01*
X68554629Y-28806145D01*
X68552132Y-28821797D01*
X68535931Y-28846385D01*
X68522232Y-28863800D01*
X68493992Y-28895283D01*
X68472775Y-28908529D01*
X68454688Y-28907664D01*
X68401035Y-28894010D01*
X68361630Y-28894630D01*
X68329632Y-28910104D01*
X68318890Y-28919161D01*
X68284505Y-28951027D01*
X68284505Y-29367179D01*
X68146188Y-29367179D01*
X68146188Y-28763614D01*
X68215347Y-28763614D01*
X68256869Y-28765256D01*
X68278291Y-28771087D01*
X68284502Y-28782461D01*
X68284505Y-28782798D01*
X68287439Y-28794713D01*
X68300704Y-28793159D01*
X68319084Y-28784563D01*
X68357046Y-28768568D01*
X68387872Y-28758945D01*
X68427536Y-28756478D01*
X68474460Y-28763030D01*
X68474460Y-28763030D01*
G37*
X68474460Y-28763030D02*
X68517711Y-28776245D01*
X68545558Y-28792941D01*
X68554629Y-28806145D01*
X68552132Y-28821797D01*
X68535931Y-28846385D01*
X68522232Y-28863800D01*
X68493992Y-28895283D01*
X68472775Y-28908529D01*
X68454688Y-28907664D01*
X68401035Y-28894010D01*
X68361630Y-28894630D01*
X68329632Y-28910104D01*
X68318890Y-28919161D01*
X68284505Y-28951027D01*
X68284505Y-29367179D01*
X68146188Y-29367179D01*
X68146188Y-28763614D01*
X68215347Y-28763614D01*
X68256869Y-28765256D01*
X68278291Y-28771087D01*
X68284502Y-28782461D01*
X68284505Y-28782798D01*
X68287439Y-28794713D01*
X68300704Y-28793159D01*
X68319084Y-28784563D01*
X68357046Y-28768568D01*
X68387872Y-28758945D01*
X68427536Y-28756478D01*
X68474460Y-28763030D01*
G36*
X67051964Y-24595018D02*
X67108812Y-24896570D01*
X67528338Y-25069512D01*
X67779984Y-24898395D01*
X67850458Y-24850750D01*
X67914163Y-24808210D01*
X67968126Y-24772715D01*
X68009373Y-24746210D01*
X68034934Y-24730636D01*
X68041895Y-24727278D01*
X68054435Y-24735914D01*
X68081231Y-24759792D01*
X68119280Y-24795859D01*
X68165579Y-24841067D01*
X68217123Y-24892364D01*
X68270909Y-24946701D01*
X68323935Y-25001028D01*
X68373195Y-25052295D01*
X68415687Y-25097451D01*
X68448407Y-25133446D01*
X68468351Y-25157230D01*
X68473119Y-25165190D01*
X68466257Y-25179865D01*
X68447020Y-25212014D01*
X68417430Y-25258492D01*
X68379510Y-25316156D01*
X68335282Y-25381860D01*
X68309654Y-25419336D01*
X68262941Y-25487768D01*
X68221432Y-25549520D01*
X68187140Y-25601519D01*
X68162080Y-25640692D01*
X68148264Y-25663965D01*
X68146188Y-25668855D01*
X68150895Y-25682755D01*
X68163723Y-25715150D01*
X68182738Y-25761485D01*
X68206003Y-25817206D01*
X68231584Y-25877758D01*
X68257545Y-25938586D01*
X68281950Y-25995136D01*
X68302863Y-26042852D01*
X68318349Y-26077181D01*
X68326472Y-26093568D01*
X68326952Y-26094212D01*
X68339707Y-26097341D01*
X68373677Y-26104321D01*
X68425340Y-26114467D01*
X68491176Y-26127092D01*
X68567664Y-26141509D01*
X68612290Y-26149823D01*
X68694021Y-26165384D01*
X68767843Y-26180192D01*
X68830021Y-26193436D01*
X68876822Y-26204305D01*
X68904509Y-26211989D01*
X68910074Y-26214427D01*
X68915526Y-26230930D01*
X68919924Y-26268200D01*
X68923272Y-26321880D01*
X68925574Y-26387612D01*
X68926832Y-26461037D01*
X68927048Y-26537796D01*
X68926227Y-26613532D01*
X68924371Y-26683886D01*
X68921482Y-26744500D01*
X68917565Y-26791016D01*
X68912622Y-26819075D01*
X68909657Y-26824916D01*
X68891934Y-26831917D01*
X68854381Y-26841927D01*
X68801964Y-26853769D01*
X68739652Y-26866267D01*
X68717900Y-26870310D01*
X68613024Y-26889520D01*
X68530180Y-26904991D01*
X68466630Y-26917337D01*
X68419637Y-26927173D01*
X68386463Y-26935114D01*
X68364371Y-26941776D01*
X68350624Y-26947773D01*
X68342484Y-26953719D01*
X68341345Y-26954894D01*
X68329977Y-26973826D01*
X68312635Y-27010669D01*
X68291050Y-27060913D01*
X68266954Y-27120046D01*
X68242079Y-27183556D01*
X68218157Y-27246932D01*
X68196919Y-27305662D01*
X68180097Y-27355235D01*
X68169422Y-27391139D01*
X68166627Y-27408862D01*
X68166860Y-27409483D01*
X68176331Y-27423970D01*
X68197818Y-27455844D01*
X68229063Y-27501789D01*
X68267807Y-27558485D01*
X68311793Y-27622617D01*
X68324319Y-27640842D01*
X68368984Y-27706914D01*
X68408288Y-27767200D01*
X68440088Y-27818235D01*
X68462245Y-27856560D01*
X68472617Y-27878711D01*
X68473119Y-27881432D01*
X68464405Y-27895736D01*
X68440325Y-27924072D01*
X68403976Y-27963396D01*
X68358453Y-28010661D01*
X68306852Y-28062823D01*
X68252267Y-28116835D01*
X68197794Y-28169653D01*
X68146529Y-28218231D01*
X68101567Y-28259523D01*
X68066004Y-28290485D01*
X68042935Y-28308070D01*
X68036554Y-28310941D01*
X68021699Y-28304178D01*
X67991286Y-28285939D01*
X67950268Y-28259297D01*
X67918709Y-28237852D01*
X67861525Y-28198503D01*
X67793806Y-28152171D01*
X67725880Y-28105913D01*
X67689361Y-28081155D01*
X67565752Y-27997547D01*
X67461991Y-28053650D01*
X67414720Y-28078228D01*
X67374523Y-28097331D01*
X67347326Y-28108227D01*
X67340402Y-28109743D01*
X67332077Y-28098549D01*
X67315654Y-28066917D01*
X67292357Y-28017765D01*
X67263414Y-27954010D01*
X67230050Y-27878571D01*
X67193491Y-27794364D01*
X67154964Y-27704308D01*
X67115694Y-27611321D01*
X67076908Y-27518320D01*
X67039830Y-27428223D01*
X67005689Y-27343948D01*
X66975708Y-27268413D01*
X66951116Y-27204534D01*
X66933136Y-27155231D01*
X66922997Y-27123421D01*
X66921366Y-27112496D01*
X66934291Y-27098561D01*
X66962589Y-27075940D01*
X67000346Y-27049333D01*
X67003515Y-27047228D01*
X67101100Y-26969114D01*
X67179786Y-26877982D01*
X67238891Y-26776745D01*
X67277732Y-26668318D01*
X67295628Y-26555614D01*
X67291897Y-26441548D01*
X67265857Y-26329034D01*
X67216825Y-26220985D01*
X67202400Y-26197345D01*
X67127369Y-26101887D01*
X67038730Y-26025232D01*
X66939549Y-25967780D01*
X66832895Y-25929929D01*
X66721836Y-25912078D01*
X66609439Y-25914625D01*
X66498773Y-25937970D01*
X66392906Y-25982510D01*
X66294905Y-26048645D01*
X66264590Y-26075487D01*
X66187438Y-26159512D01*
X66131218Y-26247966D01*
X66092653Y-26347115D01*
X66071174Y-26445303D01*
X66065872Y-26555697D01*
X66083552Y-26666640D01*
X66122419Y-26774381D01*
X66180677Y-26875169D01*
X66256531Y-26965256D01*
X66348183Y-27040892D01*
X66360228Y-27048864D01*
X66398389Y-27074974D01*
X66427399Y-27097595D01*
X66441268Y-27112039D01*
X66441469Y-27112496D01*
X66438492Y-27128121D01*
X66426689Y-27163582D01*
X66407286Y-27215962D01*
X66381512Y-27282345D01*
X66350591Y-27359814D01*
X66315751Y-27445450D01*
X66278217Y-27536337D01*
X66239217Y-27629559D01*
X66199977Y-27722197D01*
X66161724Y-27811335D01*
X66125683Y-27894055D01*
X66093083Y-27967441D01*
X66065148Y-28028575D01*
X66043105Y-28074541D01*
X66028182Y-28102421D01*
X66022172Y-28109743D01*
X66003809Y-28104041D01*
X65969448Y-28088749D01*
X65925016Y-28066599D01*
X65900583Y-28053650D01*
X65796822Y-27997547D01*
X65673213Y-28081155D01*
X65610114Y-28123987D01*
X65541030Y-28171122D01*
X65476293Y-28215503D01*
X65443866Y-28237852D01*
X65398259Y-28268477D01*
X65359640Y-28292747D01*
X65333048Y-28307587D01*
X65324410Y-28310724D01*
X65311839Y-28302261D01*
X65284016Y-28278636D01*
X65243639Y-28242302D01*
X65193405Y-28195711D01*
X65136012Y-28141317D01*
X65099714Y-28106392D01*
X65036210Y-28043996D01*
X64981327Y-27988188D01*
X64937286Y-27941354D01*
X64906305Y-27905882D01*
X64890602Y-27884161D01*
X64889095Y-27879752D01*
X64896086Y-27862985D01*
X64915406Y-27829082D01*
X64944909Y-27781476D01*
X64982455Y-27723599D01*
X65025900Y-27658884D01*
X65038255Y-27640842D01*
X65083273Y-27575267D01*
X65123660Y-27516228D01*
X65157160Y-27467042D01*
X65181514Y-27431028D01*
X65194464Y-27411502D01*
X65195715Y-27409483D01*
X65193844Y-27393922D01*
X65183913Y-27359709D01*
X65167653Y-27311355D01*
X65146795Y-27253371D01*
X65123073Y-27190270D01*
X65098216Y-27126563D01*
X65073958Y-27066761D01*
X65052029Y-27015376D01*
X65034162Y-26976919D01*
X65022087Y-26955902D01*
X65021229Y-26954894D01*
X65013846Y-26948888D01*
X65001375Y-26942948D01*
X64981080Y-26936460D01*
X64950222Y-26928809D01*
X64906066Y-26919380D01*
X64845874Y-26907559D01*
X64766907Y-26892729D01*
X64666430Y-26874277D01*
X64644675Y-26870310D01*
X64580198Y-26857853D01*
X64523989Y-26845666D01*
X64481013Y-26834926D01*
X64456240Y-26826809D01*
X64452918Y-26824916D01*
X64447444Y-26808138D01*
X64442994Y-26770645D01*
X64439572Y-26716794D01*
X64437181Y-26650944D01*
X64435823Y-26577453D01*
X64435501Y-26500680D01*
X64436219Y-26424983D01*
X64437979Y-26354720D01*
X64440784Y-26294250D01*
X64444638Y-26247930D01*
X64449543Y-26220119D01*
X64452500Y-26214427D01*
X64468963Y-26208686D01*
X64506449Y-26199345D01*
X64561225Y-26187215D01*
X64629555Y-26173107D01*
X64707706Y-26157830D01*
X64750284Y-26149823D01*
X64831071Y-26134721D01*
X64903113Y-26121040D01*
X64962889Y-26109467D01*
X65006879Y-26100687D01*
X65031561Y-26095387D01*
X65035623Y-26094212D01*
X65042489Y-26080965D01*
X65057002Y-26049057D01*
X65077229Y-26003047D01*
X65101234Y-25947492D01*
X65127082Y-25886953D01*
X65152840Y-25825986D01*
X65176573Y-25769151D01*
X65196346Y-25721006D01*
X65210224Y-25686110D01*
X65216274Y-25669021D01*
X65216386Y-25668274D01*
X65209528Y-25654793D01*
X65190302Y-25623770D01*
X65160728Y-25578289D01*
X65122827Y-25521432D01*
X65078620Y-25456283D01*
X65052921Y-25418862D01*
X65006093Y-25350247D01*
X64964501Y-25287952D01*
X64930175Y-25235129D01*
X64905143Y-25194927D01*
X64891435Y-25170500D01*
X64889456Y-25165024D01*
X64897966Y-25152278D01*
X64921493Y-25125063D01*
X64957032Y-25086428D01*
X65001577Y-25039423D01*
X65052123Y-24987095D01*
X65105664Y-24932495D01*
X65159195Y-24878670D01*
X65209711Y-24828670D01*
X65254206Y-24785543D01*
X65289675Y-24752339D01*
X65313113Y-24732106D01*
X65320954Y-24727278D01*
X65333720Y-24734067D01*
X65364256Y-24753142D01*
X65409590Y-24782561D01*
X65466756Y-24820381D01*
X65532784Y-24864661D01*
X65582590Y-24898395D01*
X65834236Y-25069512D01*
X66043999Y-24983041D01*
X66253763Y-24896570D01*
X66310611Y-24595018D01*
X66367460Y-24293466D01*
X66995115Y-24293466D01*
X67051964Y-24595018D01*
X67051964Y-24595018D01*
G37*
X67051964Y-24595018D02*
X67108812Y-24896570D01*
X67528338Y-25069512D01*
X67779984Y-24898395D01*
X67850458Y-24850750D01*
X67914163Y-24808210D01*
X67968126Y-24772715D01*
X68009373Y-24746210D01*
X68034934Y-24730636D01*
X68041895Y-24727278D01*
X68054435Y-24735914D01*
X68081231Y-24759792D01*
X68119280Y-24795859D01*
X68165579Y-24841067D01*
X68217123Y-24892364D01*
X68270909Y-24946701D01*
X68323935Y-25001028D01*
X68373195Y-25052295D01*
X68415687Y-25097451D01*
X68448407Y-25133446D01*
X68468351Y-25157230D01*
X68473119Y-25165190D01*
X68466257Y-25179865D01*
X68447020Y-25212014D01*
X68417430Y-25258492D01*
X68379510Y-25316156D01*
X68335282Y-25381860D01*
X68309654Y-25419336D01*
X68262941Y-25487768D01*
X68221432Y-25549520D01*
X68187140Y-25601519D01*
X68162080Y-25640692D01*
X68148264Y-25663965D01*
X68146188Y-25668855D01*
X68150895Y-25682755D01*
X68163723Y-25715150D01*
X68182738Y-25761485D01*
X68206003Y-25817206D01*
X68231584Y-25877758D01*
X68257545Y-25938586D01*
X68281950Y-25995136D01*
X68302863Y-26042852D01*
X68318349Y-26077181D01*
X68326472Y-26093568D01*
X68326952Y-26094212D01*
X68339707Y-26097341D01*
X68373677Y-26104321D01*
X68425340Y-26114467D01*
X68491176Y-26127092D01*
X68567664Y-26141509D01*
X68612290Y-26149823D01*
X68694021Y-26165384D01*
X68767843Y-26180192D01*
X68830021Y-26193436D01*
X68876822Y-26204305D01*
X68904509Y-26211989D01*
X68910074Y-26214427D01*
X68915526Y-26230930D01*
X68919924Y-26268200D01*
X68923272Y-26321880D01*
X68925574Y-26387612D01*
X68926832Y-26461037D01*
X68927048Y-26537796D01*
X68926227Y-26613532D01*
X68924371Y-26683886D01*
X68921482Y-26744500D01*
X68917565Y-26791016D01*
X68912622Y-26819075D01*
X68909657Y-26824916D01*
X68891934Y-26831917D01*
X68854381Y-26841927D01*
X68801964Y-26853769D01*
X68739652Y-26866267D01*
X68717900Y-26870310D01*
X68613024Y-26889520D01*
X68530180Y-26904991D01*
X68466630Y-26917337D01*
X68419637Y-26927173D01*
X68386463Y-26935114D01*
X68364371Y-26941776D01*
X68350624Y-26947773D01*
X68342484Y-26953719D01*
X68341345Y-26954894D01*
X68329977Y-26973826D01*
X68312635Y-27010669D01*
X68291050Y-27060913D01*
X68266954Y-27120046D01*
X68242079Y-27183556D01*
X68218157Y-27246932D01*
X68196919Y-27305662D01*
X68180097Y-27355235D01*
X68169422Y-27391139D01*
X68166627Y-27408862D01*
X68166860Y-27409483D01*
X68176331Y-27423970D01*
X68197818Y-27455844D01*
X68229063Y-27501789D01*
X68267807Y-27558485D01*
X68311793Y-27622617D01*
X68324319Y-27640842D01*
X68368984Y-27706914D01*
X68408288Y-27767200D01*
X68440088Y-27818235D01*
X68462245Y-27856560D01*
X68472617Y-27878711D01*
X68473119Y-27881432D01*
X68464405Y-27895736D01*
X68440325Y-27924072D01*
X68403976Y-27963396D01*
X68358453Y-28010661D01*
X68306852Y-28062823D01*
X68252267Y-28116835D01*
X68197794Y-28169653D01*
X68146529Y-28218231D01*
X68101567Y-28259523D01*
X68066004Y-28290485D01*
X68042935Y-28308070D01*
X68036554Y-28310941D01*
X68021699Y-28304178D01*
X67991286Y-28285939D01*
X67950268Y-28259297D01*
X67918709Y-28237852D01*
X67861525Y-28198503D01*
X67793806Y-28152171D01*
X67725880Y-28105913D01*
X67689361Y-28081155D01*
X67565752Y-27997547D01*
X67461991Y-28053650D01*
X67414720Y-28078228D01*
X67374523Y-28097331D01*
X67347326Y-28108227D01*
X67340402Y-28109743D01*
X67332077Y-28098549D01*
X67315654Y-28066917D01*
X67292357Y-28017765D01*
X67263414Y-27954010D01*
X67230050Y-27878571D01*
X67193491Y-27794364D01*
X67154964Y-27704308D01*
X67115694Y-27611321D01*
X67076908Y-27518320D01*
X67039830Y-27428223D01*
X67005689Y-27343948D01*
X66975708Y-27268413D01*
X66951116Y-27204534D01*
X66933136Y-27155231D01*
X66922997Y-27123421D01*
X66921366Y-27112496D01*
X66934291Y-27098561D01*
X66962589Y-27075940D01*
X67000346Y-27049333D01*
X67003515Y-27047228D01*
X67101100Y-26969114D01*
X67179786Y-26877982D01*
X67238891Y-26776745D01*
X67277732Y-26668318D01*
X67295628Y-26555614D01*
X67291897Y-26441548D01*
X67265857Y-26329034D01*
X67216825Y-26220985D01*
X67202400Y-26197345D01*
X67127369Y-26101887D01*
X67038730Y-26025232D01*
X66939549Y-25967780D01*
X66832895Y-25929929D01*
X66721836Y-25912078D01*
X66609439Y-25914625D01*
X66498773Y-25937970D01*
X66392906Y-25982510D01*
X66294905Y-26048645D01*
X66264590Y-26075487D01*
X66187438Y-26159512D01*
X66131218Y-26247966D01*
X66092653Y-26347115D01*
X66071174Y-26445303D01*
X66065872Y-26555697D01*
X66083552Y-26666640D01*
X66122419Y-26774381D01*
X66180677Y-26875169D01*
X66256531Y-26965256D01*
X66348183Y-27040892D01*
X66360228Y-27048864D01*
X66398389Y-27074974D01*
X66427399Y-27097595D01*
X66441268Y-27112039D01*
X66441469Y-27112496D01*
X66438492Y-27128121D01*
X66426689Y-27163582D01*
X66407286Y-27215962D01*
X66381512Y-27282345D01*
X66350591Y-27359814D01*
X66315751Y-27445450D01*
X66278217Y-27536337D01*
X66239217Y-27629559D01*
X66199977Y-27722197D01*
X66161724Y-27811335D01*
X66125683Y-27894055D01*
X66093083Y-27967441D01*
X66065148Y-28028575D01*
X66043105Y-28074541D01*
X66028182Y-28102421D01*
X66022172Y-28109743D01*
X66003809Y-28104041D01*
X65969448Y-28088749D01*
X65925016Y-28066599D01*
X65900583Y-28053650D01*
X65796822Y-27997547D01*
X65673213Y-28081155D01*
X65610114Y-28123987D01*
X65541030Y-28171122D01*
X65476293Y-28215503D01*
X65443866Y-28237852D01*
X65398259Y-28268477D01*
X65359640Y-28292747D01*
X65333048Y-28307587D01*
X65324410Y-28310724D01*
X65311839Y-28302261D01*
X65284016Y-28278636D01*
X65243639Y-28242302D01*
X65193405Y-28195711D01*
X65136012Y-28141317D01*
X65099714Y-28106392D01*
X65036210Y-28043996D01*
X64981327Y-27988188D01*
X64937286Y-27941354D01*
X64906305Y-27905882D01*
X64890602Y-27884161D01*
X64889095Y-27879752D01*
X64896086Y-27862985D01*
X64915406Y-27829082D01*
X64944909Y-27781476D01*
X64982455Y-27723599D01*
X65025900Y-27658884D01*
X65038255Y-27640842D01*
X65083273Y-27575267D01*
X65123660Y-27516228D01*
X65157160Y-27467042D01*
X65181514Y-27431028D01*
X65194464Y-27411502D01*
X65195715Y-27409483D01*
X65193844Y-27393922D01*
X65183913Y-27359709D01*
X65167653Y-27311355D01*
X65146795Y-27253371D01*
X65123073Y-27190270D01*
X65098216Y-27126563D01*
X65073958Y-27066761D01*
X65052029Y-27015376D01*
X65034162Y-26976919D01*
X65022087Y-26955902D01*
X65021229Y-26954894D01*
X65013846Y-26948888D01*
X65001375Y-26942948D01*
X64981080Y-26936460D01*
X64950222Y-26928809D01*
X64906066Y-26919380D01*
X64845874Y-26907559D01*
X64766907Y-26892729D01*
X64666430Y-26874277D01*
X64644675Y-26870310D01*
X64580198Y-26857853D01*
X64523989Y-26845666D01*
X64481013Y-26834926D01*
X64456240Y-26826809D01*
X64452918Y-26824916D01*
X64447444Y-26808138D01*
X64442994Y-26770645D01*
X64439572Y-26716794D01*
X64437181Y-26650944D01*
X64435823Y-26577453D01*
X64435501Y-26500680D01*
X64436219Y-26424983D01*
X64437979Y-26354720D01*
X64440784Y-26294250D01*
X64444638Y-26247930D01*
X64449543Y-26220119D01*
X64452500Y-26214427D01*
X64468963Y-26208686D01*
X64506449Y-26199345D01*
X64561225Y-26187215D01*
X64629555Y-26173107D01*
X64707706Y-26157830D01*
X64750284Y-26149823D01*
X64831071Y-26134721D01*
X64903113Y-26121040D01*
X64962889Y-26109467D01*
X65006879Y-26100687D01*
X65031561Y-26095387D01*
X65035623Y-26094212D01*
X65042489Y-26080965D01*
X65057002Y-26049057D01*
X65077229Y-26003047D01*
X65101234Y-25947492D01*
X65127082Y-25886953D01*
X65152840Y-25825986D01*
X65176573Y-25769151D01*
X65196346Y-25721006D01*
X65210224Y-25686110D01*
X65216274Y-25669021D01*
X65216386Y-25668274D01*
X65209528Y-25654793D01*
X65190302Y-25623770D01*
X65160728Y-25578289D01*
X65122827Y-25521432D01*
X65078620Y-25456283D01*
X65052921Y-25418862D01*
X65006093Y-25350247D01*
X64964501Y-25287952D01*
X64930175Y-25235129D01*
X64905143Y-25194927D01*
X64891435Y-25170500D01*
X64889456Y-25165024D01*
X64897966Y-25152278D01*
X64921493Y-25125063D01*
X64957032Y-25086428D01*
X65001577Y-25039423D01*
X65052123Y-24987095D01*
X65105664Y-24932495D01*
X65159195Y-24878670D01*
X65209711Y-24828670D01*
X65254206Y-24785543D01*
X65289675Y-24752339D01*
X65313113Y-24732106D01*
X65320954Y-24727278D01*
X65333720Y-24734067D01*
X65364256Y-24753142D01*
X65409590Y-24782561D01*
X65466756Y-24820381D01*
X65532784Y-24864661D01*
X65582590Y-24898395D01*
X65834236Y-25069512D01*
X66043999Y-24983041D01*
X66253763Y-24896570D01*
X66310611Y-24595018D01*
X66367460Y-24293466D01*
X66995115Y-24293466D01*
X67051964Y-24595018D01*
G04 #@! TO.C,JP1*
D13*
X50633380Y-35758333D02*
X51347666Y-35758333D01*
X51490523Y-35805952D01*
X51585761Y-35901190D01*
X51633380Y-36044047D01*
X51633380Y-36139285D01*
X51633380Y-35282142D02*
X50633380Y-35282142D01*
X50633380Y-34901190D01*
X50681000Y-34805952D01*
X50728619Y-34758333D01*
X50823857Y-34710714D01*
X50966714Y-34710714D01*
X51061952Y-34758333D01*
X51109571Y-34805952D01*
X51157190Y-34901190D01*
X51157190Y-35282142D01*
X51633380Y-33758333D02*
X51633380Y-34329761D01*
X51633380Y-34044047D02*
X50633380Y-34044047D01*
X50776238Y-34139285D01*
X50871476Y-34234523D01*
X50919095Y-34329761D01*
G04 #@! TO.C,J2*
X61261666Y-34949380D02*
X61261666Y-35663666D01*
X61214047Y-35806523D01*
X61118809Y-35901761D01*
X60975952Y-35949380D01*
X60880714Y-35949380D01*
X61690238Y-35044619D02*
X61737857Y-34997000D01*
X61833095Y-34949380D01*
X62071190Y-34949380D01*
X62166428Y-34997000D01*
X62214047Y-35044619D01*
X62261666Y-35139857D01*
X62261666Y-35235095D01*
X62214047Y-35377952D01*
X61642619Y-35949380D01*
X62261666Y-35949380D01*
G04 #@! TO.C,U2*
X23848095Y-30567380D02*
X23848095Y-31376904D01*
X23895714Y-31472142D01*
X23943333Y-31519761D01*
X24038571Y-31567380D01*
X24229047Y-31567380D01*
X24324285Y-31519761D01*
X24371904Y-31472142D01*
X24419523Y-31376904D01*
X24419523Y-30567380D01*
X24848095Y-30662619D02*
X24895714Y-30615000D01*
X24990952Y-30567380D01*
X25229047Y-30567380D01*
X25324285Y-30615000D01*
X25371904Y-30662619D01*
X25419523Y-30757857D01*
X25419523Y-30853095D01*
X25371904Y-30995952D01*
X24800476Y-31567380D01*
X25419523Y-31567380D01*
G04 #@! TO.C,Y1*
X33813809Y-30991190D02*
X33813809Y-31467380D01*
X33480476Y-30467380D02*
X33813809Y-30991190D01*
X34147142Y-30467380D01*
X35004285Y-31467380D02*
X34432857Y-31467380D01*
X34718571Y-31467380D02*
X34718571Y-30467380D01*
X34623333Y-30610238D01*
X34528095Y-30705476D01*
X34432857Y-30753095D01*
G04 #@! TO.C,C1*
X35993333Y-41537142D02*
X35945714Y-41584761D01*
X35802857Y-41632380D01*
X35707619Y-41632380D01*
X35564761Y-41584761D01*
X35469523Y-41489523D01*
X35421904Y-41394285D01*
X35374285Y-41203809D01*
X35374285Y-41060952D01*
X35421904Y-40870476D01*
X35469523Y-40775238D01*
X35564761Y-40680000D01*
X35707619Y-40632380D01*
X35802857Y-40632380D01*
X35945714Y-40680000D01*
X35993333Y-40727619D01*
X36945714Y-41632380D02*
X36374285Y-41632380D01*
X36660000Y-41632380D02*
X36660000Y-40632380D01*
X36564761Y-40775238D01*
X36469523Y-40870476D01*
X36374285Y-40918095D01*
G04 #@! TO.C,C2*
X25868333Y-42077142D02*
X25820714Y-42124761D01*
X25677857Y-42172380D01*
X25582619Y-42172380D01*
X25439761Y-42124761D01*
X25344523Y-42029523D01*
X25296904Y-41934285D01*
X25249285Y-41743809D01*
X25249285Y-41600952D01*
X25296904Y-41410476D01*
X25344523Y-41315238D01*
X25439761Y-41220000D01*
X25582619Y-41172380D01*
X25677857Y-41172380D01*
X25820714Y-41220000D01*
X25868333Y-41267619D01*
X26249285Y-41267619D02*
X26296904Y-41220000D01*
X26392142Y-41172380D01*
X26630238Y-41172380D01*
X26725476Y-41220000D01*
X26773095Y-41267619D01*
X26820714Y-41362857D01*
X26820714Y-41458095D01*
X26773095Y-41600952D01*
X26201666Y-42172380D01*
X26820714Y-42172380D01*
G04 #@! TO.C,C3*
X40997142Y-26201666D02*
X41044761Y-26249285D01*
X41092380Y-26392142D01*
X41092380Y-26487380D01*
X41044761Y-26630238D01*
X40949523Y-26725476D01*
X40854285Y-26773095D01*
X40663809Y-26820714D01*
X40520952Y-26820714D01*
X40330476Y-26773095D01*
X40235238Y-26725476D01*
X40140000Y-26630238D01*
X40092380Y-26487380D01*
X40092380Y-26392142D01*
X40140000Y-26249285D01*
X40187619Y-26201666D01*
X40092380Y-25868333D02*
X40092380Y-25249285D01*
X40473333Y-25582619D01*
X40473333Y-25439761D01*
X40520952Y-25344523D01*
X40568571Y-25296904D01*
X40663809Y-25249285D01*
X40901904Y-25249285D01*
X40997142Y-25296904D01*
X41044761Y-25344523D01*
X41092380Y-25439761D01*
X41092380Y-25725476D01*
X41044761Y-25820714D01*
X40997142Y-25868333D01*
G04 #@! TO.C,C4*
X41092142Y-28741666D02*
X41139761Y-28789285D01*
X41187380Y-28932142D01*
X41187380Y-29027380D01*
X41139761Y-29170238D01*
X41044523Y-29265476D01*
X40949285Y-29313095D01*
X40758809Y-29360714D01*
X40615952Y-29360714D01*
X40425476Y-29313095D01*
X40330238Y-29265476D01*
X40235000Y-29170238D01*
X40187380Y-29027380D01*
X40187380Y-28932142D01*
X40235000Y-28789285D01*
X40282619Y-28741666D01*
X40520714Y-27884523D02*
X41187380Y-27884523D01*
X40139761Y-28122619D02*
X40854047Y-28360714D01*
X40854047Y-27741666D01*
G04 #@! TO.C,C5*
X46188333Y-28392142D02*
X46140714Y-28439761D01*
X45997857Y-28487380D01*
X45902619Y-28487380D01*
X45759761Y-28439761D01*
X45664523Y-28344523D01*
X45616904Y-28249285D01*
X45569285Y-28058809D01*
X45569285Y-27915952D01*
X45616904Y-27725476D01*
X45664523Y-27630238D01*
X45759761Y-27535000D01*
X45902619Y-27487380D01*
X45997857Y-27487380D01*
X46140714Y-27535000D01*
X46188333Y-27582619D01*
X47093095Y-27487380D02*
X46616904Y-27487380D01*
X46569285Y-27963571D01*
X46616904Y-27915952D01*
X46712142Y-27868333D01*
X46950238Y-27868333D01*
X47045476Y-27915952D01*
X47093095Y-27963571D01*
X47140714Y-28058809D01*
X47140714Y-28296904D01*
X47093095Y-28392142D01*
X47045476Y-28439761D01*
X46950238Y-28487380D01*
X46712142Y-28487380D01*
X46616904Y-28439761D01*
X46569285Y-28392142D01*
G04 #@! TO.C,J1*
X25066666Y-23582380D02*
X25066666Y-24296666D01*
X25019047Y-24439523D01*
X24923809Y-24534761D01*
X24780952Y-24582380D01*
X24685714Y-24582380D01*
X26066666Y-24582380D02*
X25495238Y-24582380D01*
X25780952Y-24582380D02*
X25780952Y-23582380D01*
X25685714Y-23725238D01*
X25590476Y-23820476D01*
X25495238Y-23868095D01*
G04 #@! TO.C,J3*
X72691666Y-25487380D02*
X72691666Y-26201666D01*
X72644047Y-26344523D01*
X72548809Y-26439761D01*
X72405952Y-26487380D01*
X72310714Y-26487380D01*
X73072619Y-25487380D02*
X73691666Y-25487380D01*
X73358333Y-25868333D01*
X73501190Y-25868333D01*
X73596428Y-25915952D01*
X73644047Y-25963571D01*
X73691666Y-26058809D01*
X73691666Y-26296904D01*
X73644047Y-26392142D01*
X73596428Y-26439761D01*
X73501190Y-26487380D01*
X73215476Y-26487380D01*
X73120238Y-26439761D01*
X73072619Y-26392142D01*
G04 #@! TO.C,R1*
X41187380Y-31281666D02*
X40711190Y-31615000D01*
X41187380Y-31853095D02*
X40187380Y-31853095D01*
X40187380Y-31472142D01*
X40235000Y-31376904D01*
X40282619Y-31329285D01*
X40377857Y-31281666D01*
X40520714Y-31281666D01*
X40615952Y-31329285D01*
X40663571Y-31376904D01*
X40711190Y-31472142D01*
X40711190Y-31853095D01*
X41187380Y-30329285D02*
X41187380Y-30900714D01*
X41187380Y-30615000D02*
X40187380Y-30615000D01*
X40330238Y-30710238D01*
X40425476Y-30805476D01*
X40473095Y-30900714D01*
G04 #@! TO.C,R2*
X72842380Y-40171666D02*
X72366190Y-40505000D01*
X72842380Y-40743095D02*
X71842380Y-40743095D01*
X71842380Y-40362142D01*
X71890000Y-40266904D01*
X71937619Y-40219285D01*
X72032857Y-40171666D01*
X72175714Y-40171666D01*
X72270952Y-40219285D01*
X72318571Y-40266904D01*
X72366190Y-40362142D01*
X72366190Y-40743095D01*
X71937619Y-39790714D02*
X71890000Y-39743095D01*
X71842380Y-39647857D01*
X71842380Y-39409761D01*
X71890000Y-39314523D01*
X71937619Y-39266904D01*
X72032857Y-39219285D01*
X72128095Y-39219285D01*
X72270952Y-39266904D01*
X72842380Y-39838333D01*
X72842380Y-39219285D01*
G04 #@! TO.C,R3*
X56983333Y-28202380D02*
X56650000Y-27726190D01*
X56411904Y-28202380D02*
X56411904Y-27202380D01*
X56792857Y-27202380D01*
X56888095Y-27250000D01*
X56935714Y-27297619D01*
X56983333Y-27392857D01*
X56983333Y-27535714D01*
X56935714Y-27630952D01*
X56888095Y-27678571D01*
X56792857Y-27726190D01*
X56411904Y-27726190D01*
X57316666Y-27202380D02*
X57935714Y-27202380D01*
X57602380Y-27583333D01*
X57745238Y-27583333D01*
X57840476Y-27630952D01*
X57888095Y-27678571D01*
X57935714Y-27773809D01*
X57935714Y-28011904D01*
X57888095Y-28107142D01*
X57840476Y-28154761D01*
X57745238Y-28202380D01*
X57459523Y-28202380D01*
X57364285Y-28154761D01*
X57316666Y-28107142D01*
G04 #@! TO.C,R4*
X41187380Y-33821666D02*
X40711190Y-34155000D01*
X41187380Y-34393095D02*
X40187380Y-34393095D01*
X40187380Y-34012142D01*
X40235000Y-33916904D01*
X40282619Y-33869285D01*
X40377857Y-33821666D01*
X40520714Y-33821666D01*
X40615952Y-33869285D01*
X40663571Y-33916904D01*
X40711190Y-34012142D01*
X40711190Y-34393095D01*
X40520714Y-32964523D02*
X41187380Y-32964523D01*
X40139761Y-33202619D02*
X40854047Y-33440714D01*
X40854047Y-32821666D01*
G04 #@! TO.C,R5*
X50712380Y-33821666D02*
X50236190Y-34155000D01*
X50712380Y-34393095D02*
X49712380Y-34393095D01*
X49712380Y-34012142D01*
X49760000Y-33916904D01*
X49807619Y-33869285D01*
X49902857Y-33821666D01*
X50045714Y-33821666D01*
X50140952Y-33869285D01*
X50188571Y-33916904D01*
X50236190Y-34012142D01*
X50236190Y-34393095D01*
X49712380Y-32916904D02*
X49712380Y-33393095D01*
X50188571Y-33440714D01*
X50140952Y-33393095D01*
X50093333Y-33297857D01*
X50093333Y-33059761D01*
X50140952Y-32964523D01*
X50188571Y-32916904D01*
X50283809Y-32869285D01*
X50521904Y-32869285D01*
X50617142Y-32916904D01*
X50664761Y-32964523D01*
X50712380Y-33059761D01*
X50712380Y-33297857D01*
X50664761Y-33393095D01*
X50617142Y-33440714D01*
G04 #@! TO.C,U3*
X30443095Y-41362380D02*
X30443095Y-42171904D01*
X30490714Y-42267142D01*
X30538333Y-42314761D01*
X30633571Y-42362380D01*
X30824047Y-42362380D01*
X30919285Y-42314761D01*
X30966904Y-42267142D01*
X31014523Y-42171904D01*
X31014523Y-41362380D01*
X31395476Y-41362380D02*
X32014523Y-41362380D01*
X31681190Y-41743333D01*
X31824047Y-41743333D01*
X31919285Y-41790952D01*
X31966904Y-41838571D01*
X32014523Y-41933809D01*
X32014523Y-42171904D01*
X31966904Y-42267142D01*
X31919285Y-42314761D01*
X31824047Y-42362380D01*
X31538333Y-42362380D01*
X31443095Y-42314761D01*
X31395476Y-42267142D01*
G04 #@! TO.C,U4*
X50673095Y-27552380D02*
X50673095Y-28361904D01*
X50720714Y-28457142D01*
X50768333Y-28504761D01*
X50863571Y-28552380D01*
X51054047Y-28552380D01*
X51149285Y-28504761D01*
X51196904Y-28457142D01*
X51244523Y-28361904D01*
X51244523Y-27552380D01*
X52149285Y-27885714D02*
X52149285Y-28552380D01*
X51911190Y-27504761D02*
X51673095Y-28219047D01*
X52292142Y-28219047D01*
G04 #@! TD*
M02*
