G04 #@! TF.GenerationSoftware,KiCad,Pcbnew,5.0.0-fee4fd1~66~ubuntu18.04.1*
G04 #@! TF.CreationDate,2018-08-10T10:17:42+02:00*
G04 #@! TF.ProjectId,Can_pHat_5.0,43616E5F704861745F352E302E6B6963,rev?*
G04 #@! TF.SameCoordinates,Original*
G04 #@! TF.FileFunction,Soldermask,Top*
G04 #@! TF.FilePolarity,Negative*
%FSLAX46Y46*%
G04 Gerber Fmt 4.6, Leading zero omitted, Abs format (unit mm)*
G04 Created by KiCad (PCBNEW 5.0.0-fee4fd1~66~ubuntu18.04.1) date Fri Aug 10 10:17:42 2018*
%MOMM*%
%LPD*%
G01*
G04 APERTURE LIST*
%ADD10C,0.100000*%
%ADD11C,0.500000*%
%ADD12R,2.000000X2.000000*%
%ADD13C,2.000000*%
%ADD14C,4.400000*%
%ADD15R,1.000000X2.400000*%
%ADD16C,6.200000*%
%ADD17C,1.900000*%
%ADD18R,2.000000X2.400000*%
%ADD19R,2.400000X2.000000*%
%ADD20O,2.100000X2.100000*%
%ADD21R,2.100000X2.100000*%
%ADD22C,3.400000*%
%ADD23R,3.400000X3.400000*%
%ADD24R,2.400000X2.100000*%
%ADD25O,2.000000X2.000000*%
%ADD26R,2.100000X2.400000*%
%ADD27R,1.000000X1.950000*%
G04 APERTURE END LIST*
D10*
G04 #@! TO.C,JP1*
G36*
X58928000Y-32004000D02*
X54864000Y-32004000D01*
X54864000Y-35306000D01*
X58928000Y-35306000D01*
X58928000Y-32004000D01*
G37*
G04 #@! TD*
D11*
G04 #@! TO.C,JP1*
X55499000Y-33655000D03*
D10*
G36*
X54794843Y-32091982D02*
X54806224Y-32054463D01*
X54824706Y-32019886D01*
X54849579Y-31989579D01*
X54879886Y-31964706D01*
X54914463Y-31946224D01*
X54951982Y-31934843D01*
X54991000Y-31931000D01*
X55753000Y-31931000D01*
X55792018Y-31934843D01*
X55829537Y-31946224D01*
X55864114Y-31964706D01*
X55894421Y-31989579D01*
X55919294Y-32019886D01*
X55937776Y-32054463D01*
X55949157Y-32091982D01*
X55953000Y-32131000D01*
X55953000Y-34217000D01*
X56823000Y-34217000D01*
X56823000Y-33147000D01*
X56826843Y-33107982D01*
X56838224Y-33070463D01*
X56856706Y-33035886D01*
X56881579Y-33005579D01*
X56911886Y-32980706D01*
X56946463Y-32962224D01*
X56983982Y-32950843D01*
X57023000Y-32947000D01*
X57785000Y-32947000D01*
X57824018Y-32950843D01*
X57861537Y-32962224D01*
X57896114Y-32980706D01*
X57926421Y-33005579D01*
X57951294Y-33035886D01*
X57969776Y-33070463D01*
X57981157Y-33107982D01*
X57985000Y-33147000D01*
X57985000Y-35179000D01*
X57981157Y-35218018D01*
X57969776Y-35255537D01*
X57951294Y-35290114D01*
X57926421Y-35320421D01*
X57896114Y-35345294D01*
X57861537Y-35363776D01*
X57824018Y-35375157D01*
X57785000Y-35379000D01*
X54991000Y-35379000D01*
X54951982Y-35375157D01*
X54914463Y-35363776D01*
X54879886Y-35345294D01*
X54849579Y-35320421D01*
X54824706Y-35290114D01*
X54806224Y-35255537D01*
X54794843Y-35218018D01*
X54791000Y-35179000D01*
X54791000Y-32131000D01*
X54794843Y-32091982D01*
X54794843Y-32091982D01*
G37*
D11*
X58293000Y-33655000D03*
D10*
G36*
X55810843Y-32091982D02*
X55822224Y-32054463D01*
X55840706Y-32019886D01*
X55865579Y-31989579D01*
X55895886Y-31964706D01*
X55930463Y-31946224D01*
X55967982Y-31934843D01*
X56007000Y-31931000D01*
X58801000Y-31931000D01*
X58840018Y-31934843D01*
X58877537Y-31946224D01*
X58912114Y-31964706D01*
X58942421Y-31989579D01*
X58967294Y-32019886D01*
X58985776Y-32054463D01*
X58997157Y-32091982D01*
X59001000Y-32131000D01*
X59001000Y-35179000D01*
X58997157Y-35218018D01*
X58985776Y-35255537D01*
X58967294Y-35290114D01*
X58942421Y-35320421D01*
X58912114Y-35345294D01*
X58877537Y-35363776D01*
X58840018Y-35375157D01*
X58801000Y-35379000D01*
X58039000Y-35379000D01*
X57999982Y-35375157D01*
X57962463Y-35363776D01*
X57927886Y-35345294D01*
X57897579Y-35320421D01*
X57872706Y-35290114D01*
X57854224Y-35255537D01*
X57842843Y-35218018D01*
X57839000Y-35179000D01*
X57839000Y-33093000D01*
X56969000Y-33093000D01*
X56969000Y-34163000D01*
X56965157Y-34202018D01*
X56953776Y-34239537D01*
X56935294Y-34274114D01*
X56910421Y-34304421D01*
X56880114Y-34329294D01*
X56845537Y-34347776D01*
X56808018Y-34359157D01*
X56769000Y-34363000D01*
X56007000Y-34363000D01*
X55967982Y-34359157D01*
X55930463Y-34347776D01*
X55895886Y-34329294D01*
X55865579Y-34304421D01*
X55840706Y-34274114D01*
X55822224Y-34239537D01*
X55810843Y-34202018D01*
X55807000Y-34163000D01*
X55807000Y-32131000D01*
X55810843Y-32091982D01*
X55810843Y-32091982D01*
G37*
G04 #@! TD*
D12*
G04 #@! TO.C,J2*
X59690000Y-39197000D03*
D13*
X56920000Y-39197000D03*
X54150000Y-39197000D03*
X51380000Y-39197000D03*
X48610000Y-39197000D03*
X58305000Y-42037000D03*
X55535000Y-42037000D03*
X52765000Y-42037000D03*
X49995000Y-42037000D03*
D14*
X41650000Y-39497000D03*
X66650000Y-39497000D03*
G04 #@! TD*
D15*
G04 #@! TO.C,U2*
X19685000Y-26415000D03*
X20955000Y-26415000D03*
X22225000Y-26415000D03*
X23495000Y-26415000D03*
X24765000Y-26415000D03*
X26035000Y-26415000D03*
X27305000Y-26415000D03*
X28575000Y-26415000D03*
X29845000Y-26415000D03*
X29845000Y-35815000D03*
X28575000Y-35815000D03*
X27305000Y-35815000D03*
X26035000Y-35815000D03*
X24765000Y-35815000D03*
X23495000Y-35815000D03*
X22225000Y-35815000D03*
X20955000Y-35815000D03*
X19685000Y-35815000D03*
G04 #@! TD*
D16*
G04 #@! TO.C,REF\002A\002A*
X78500000Y-20500000D03*
G04 #@! TD*
G04 #@! TO.C,REF\002A\002A*
X78500000Y-43500000D03*
G04 #@! TD*
G04 #@! TO.C,REF\002A\002A*
X20500000Y-43500000D03*
G04 #@! TD*
G04 #@! TO.C,REF\002A\002A*
X20500000Y-20500000D03*
G04 #@! TD*
D17*
G04 #@! TO.C,Y1*
X34290000Y-28575000D03*
X34290000Y-33455000D03*
G04 #@! TD*
D18*
G04 #@! TO.C,C1*
X36195000Y-39180000D03*
X36195000Y-43180000D03*
G04 #@! TD*
G04 #@! TO.C,C2*
X26035000Y-39815000D03*
X26035000Y-43815000D03*
G04 #@! TD*
D19*
G04 #@! TO.C,C3*
X42735000Y-26035000D03*
X38735000Y-26035000D03*
G04 #@! TD*
G04 #@! TO.C,C4*
X38735000Y-28575000D03*
X42735000Y-28575000D03*
G04 #@! TD*
D18*
G04 #@! TO.C,C5*
X46355000Y-30035000D03*
X46355000Y-26035000D03*
G04 #@! TD*
D20*
G04 #@! TO.C,J1*
X73630000Y-19230000D03*
X73630000Y-21770000D03*
X71090000Y-19230000D03*
X71090000Y-21770000D03*
X68550000Y-19230000D03*
X68550000Y-21770000D03*
X66010000Y-19230000D03*
X66010000Y-21770000D03*
X63470000Y-19230000D03*
X63470000Y-21770000D03*
X60930000Y-19230000D03*
X60930000Y-21770000D03*
X58390000Y-19230000D03*
X58390000Y-21770000D03*
X55850000Y-19230000D03*
X55850000Y-21770000D03*
X53310000Y-19230000D03*
X53310000Y-21770000D03*
X50770000Y-19230000D03*
X50770000Y-21770000D03*
X48230000Y-19230000D03*
X48230000Y-21770000D03*
X45690000Y-19230000D03*
X45690000Y-21770000D03*
X43150000Y-19230000D03*
X43150000Y-21770000D03*
X40610000Y-19230000D03*
X40610000Y-21770000D03*
X38070000Y-19230000D03*
X38070000Y-21770000D03*
X35530000Y-19230000D03*
X35530000Y-21770000D03*
X32990000Y-19230000D03*
X32990000Y-21770000D03*
X30450000Y-19230000D03*
X30450000Y-21770000D03*
X27910000Y-19230000D03*
X27910000Y-21770000D03*
X25370000Y-19230000D03*
D21*
X25370000Y-21770000D03*
G04 #@! TD*
D22*
G04 #@! TO.C,J3*
X78000000Y-27920000D03*
D23*
X78000000Y-33000000D03*
G04 #@! TD*
D24*
G04 #@! TO.C,R1*
X42735000Y-31115000D03*
X38735000Y-31115000D03*
G04 #@! TD*
D25*
G04 #@! TO.C,R2*
X72390000Y-45085000D03*
D13*
X72390000Y-34925000D03*
G04 #@! TD*
D26*
G04 #@! TO.C,R3*
X57150000Y-25845000D03*
X57150000Y-29845000D03*
G04 #@! TD*
D24*
G04 #@! TO.C,R4*
X42735000Y-33655000D03*
X38735000Y-33655000D03*
G04 #@! TD*
G04 #@! TO.C,R5*
X48260000Y-33655000D03*
X52260000Y-33655000D03*
G04 #@! TD*
D27*
G04 #@! TO.C,U3*
X33020000Y-39210000D03*
X31750000Y-39210000D03*
X30480000Y-39210000D03*
X29210000Y-39210000D03*
X29210000Y-44610000D03*
X30480000Y-44610000D03*
X31750000Y-44610000D03*
X33020000Y-44610000D03*
G04 #@! TD*
G04 #@! TO.C,U4*
X49530000Y-25400000D03*
X50800000Y-25400000D03*
X52070000Y-25400000D03*
X53340000Y-25400000D03*
X53340000Y-30800000D03*
X52070000Y-30800000D03*
X50800000Y-30800000D03*
X49530000Y-30800000D03*
G04 #@! TD*
M02*
