M48
;DRILL file {KiCad 5.0.0-fee4fd1~66~ubuntu18.04.1} date Fri Aug 10 10:11:44 2018
;FORMAT={-:-/ absolute / inch / decimal}
FMAT,2
INCH,TZ
T1C0.0157
T2C0.0315
T3C0.0394
T4C0.0598
T5C0.1260
%
G90
G05
M72
T1
X0.825Y-1.11
X0.925Y-1.11
X0.975Y-0.97
X1.025Y-1.11
X1.025Y-1.65
X1.075Y-1.11
X1.2Y-1.4907
X1.215Y-1.41
X1.25Y-1.6
X1.4562Y-1.2262
X1.495Y-1.7
X1.61Y-1.125
X1.825Y-1.115
X1.9059Y-1.2359
X2.Y-1.06
X2.34Y-1.325
T2
X2.85Y-1.375
X2.85Y-1.775
X1.35Y-1.125
X1.35Y-1.3171
T3
X0.9988Y-0.7571
X0.9988Y-0.8571
X1.0988Y-0.7571
X1.0988Y-0.8571
X1.1988Y-0.7571
X1.1988Y-0.8571
X1.2988Y-0.7571
X1.2988Y-0.8571
X1.3988Y-0.7571
X1.3988Y-0.8571
X1.4988Y-0.7571
X1.4988Y-0.8571
X1.5988Y-0.7571
X1.5988Y-0.8571
X1.6988Y-0.7571
X1.6988Y-0.8571
X1.7988Y-0.7571
X1.7988Y-0.8571
X1.8988Y-0.7571
X1.8988Y-0.8571
X1.9988Y-0.7571
X1.9988Y-0.8571
X2.0988Y-0.7571
X2.0988Y-0.8571
X2.1988Y-0.7571
X2.1988Y-0.8571
X2.2988Y-0.7571
X2.2988Y-0.8571
X2.3988Y-0.7571
X2.3988Y-0.8571
X2.4988Y-0.7571
X2.4988Y-0.8571
X2.5988Y-0.7571
X2.5988Y-0.8571
X2.6988Y-0.7571
X2.6988Y-0.8571
X2.7988Y-0.7571
X2.7988Y-0.8571
X2.8988Y-0.7571
X2.8988Y-0.8571
X1.9138Y-1.5432
X1.9683Y-1.655
X2.0228Y-1.5432
X2.0774Y-1.655
X2.1319Y-1.5432
X2.1864Y-1.655
X2.2409Y-1.5432
X2.2955Y-1.655
X2.35Y-1.5432
T4
X3.0709Y-1.0992
X3.0709Y-1.2992
T5
X1.6398Y-1.555
X2.624Y-1.555
T0
M30
